<svg xmlns="http://www.w3.org/2000/svg" width="32" height="32" viewBox="0 0 8.467 8.467"><g transform="translate(526.51 -511.866) scale(.26458)"><path fill="#484666" style="line-height:normal;font-variant-ligatures:normal;font-variant-position:normal;font-variant-caps:normal;font-variant-numeric:normal;font-variant-alternates:normal;font-feature-settings:normal;text-indent:0;text-align:start;text-decoration-line:none;text-decoration-style:solid;text-decoration-color:#000;text-transform:none;text-orientation:mixed;shape-padding:0;isolation:auto;mix-blend-mode:normal" d="m -1959.4555,1936.6116 h -20 a 0.50005,0.50005 0 0 0 -0.5,0.5 v 1.5 h -1.5 a 0.50005,0.50005 0 0 0 -0.5,0.5 v 12 a 0.50005,0.50005 0 0 0 0.5,0.5 h 20 a 0.50005,0.50005 0 0 0 0.5,-0.5 v -1.5019 h 1.5 a 0.50005,0.50005 0 0 0 0.5,-0.5 v -12 a 0.50005,0.50005 0 0 0 -0.5,-0.5 z" color="#000" font-family="sans-serif" font-weight="400" overflow="visible"/><path fill="#98d1b3" style="line-height:normal;font-variant-ligatures:normal;font-variant-position:normal;font-variant-caps:normal;font-variant-numeric:normal;font-variant-alternates:normal;font-feature-settings:normal;text-indent:0;text-align:start;text-decoration-line:none;text-decoration-style:solid;text-decoration-color:#000;text-transform:none;text-orientation:mixed;shape-padding:0;isolation:auto;mix-blend-mode:normal" d="m -1978.9555,1937.6116 h 19 v 11 h -1 v -9.4981 a 0.50005,0.50005 0 0 0 -0.5,-0.5 h -17.5 z" color="#000" font-family="sans-serif" font-weight="400" overflow="visible"/><path fill="#afd4b2" style="line-height:normal;font-variant-ligatures:normal;font-variant-position:normal;font-variant-caps:normal;font-variant-numeric:normal;font-variant-alternates:normal;font-feature-settings:normal;text-indent:0;text-align:start;text-decoration-line:none;text-decoration-style:solid;text-decoration-color:#000;text-transform:none;text-orientation:mixed;shape-padding:0;isolation:auto;mix-blend-mode:normal" d="m -1980.9555,1939.6135 h 19 v 11 h -19 z" color="#000" font-family="sans-serif" font-weight="400" overflow="visible"/><path fill="#484666" style="line-height:normal;font-variant-ligatures:normal;font-variant-position:normal;font-variant-caps:normal;font-variant-numeric:normal;font-variant-alternates:normal;font-feature-settings:normal;text-indent:0;text-align:start;text-decoration-line:none;text-decoration-style:solid;text-decoration-color:#000;text-transform:none;text-orientation:mixed;shape-padding:0;isolation:auto;mix-blend-mode:normal" d="m -1977.4556,1940.6126 c -1.3764,0 -2.5,1.1237 -2.5,2.5 v 4 c 0,1.3764 1.1236,2.5 2.5,2.5 h 12 c 1.3764,0 2.5,-1.1236 2.5,-2.5 v -4 c 0,-1.3763 -1.1236,-2.5 -2.5,-2.5 z" color="#000" font-family="sans-serif" font-weight="400" overflow="visible"/><path fill="#d1e2cd" style="line-height:normal;font-variant-ligatures:normal;font-variant-position:normal;font-variant-caps:normal;font-variant-numeric:normal;font-variant-alternates:normal;font-feature-settings:normal;text-indent:0;text-align:start;text-decoration-line:none;text-decoration-style:solid;text-decoration-color:#000;text-transform:none;text-orientation:mixed;shape-padding:0;isolation:auto;mix-blend-mode:normal" d="m -1977.4556,1941.6126 h 12 c 0.8396,0 1.5,0.6604 1.5,1.5 v 4 c 0,0.8397 -0.6604,1.5 -1.5,1.5 h -12 c -0.8396,0 -1.5,-0.6603 -1.5,-1.5 v -4 c 0,-0.8396 0.6604,-1.5 1.5,-1.5 z" color="#000" font-family="sans-serif" font-weight="400" overflow="visible"/><path fill="#484666" style="line-height:normal;font-variant-ligatures:normal;font-variant-position:normal;font-variant-caps:normal;font-variant-numeric:normal;font-variant-alternates:normal;font-feature-settings:normal;text-indent:0;text-align:start;text-decoration-line:none;text-decoration-style:solid;text-decoration-color:#000;text-transform:none;text-orientation:mixed;shape-padding:0;isolation:auto;mix-blend-mode:normal" d="M-1971.9565 1942.1126v.5118c-.5141.237-.834.8255-.834 1.4394 0 .7947.5331 1.5488 1.334 1.5488.1209 0 .3359.1857.3359.5508 0 .3652-.215.5488-.3359.5488-.1209 0-.334-.1836-.334-.5488h-1c0 .614.3199 1.1991.834 1.4356v.5136h1v-.5136c.5146-.2365.8359-.8216.8359-1.4356 0-.7946-.535-1.5508-1.3359-1.5508-.1209 0-.334-.1837-.334-.5488 0-.3651.213-.5508.334-.5508.1209 0 .3359.1857.3359.5508h1c0-.614-.3213-1.2024-.8359-1.4394v-.5118zM-1988.4556 1953.1155a.50004994.50004994 0 0 0-.5.5v10.5a.50004994.50004994 0 0 0 .5.5h4.5a.50004994.50004994 0 0 0 .5-.5v-1.5215l7.375 1.7403c2.2138.5225 4.5371.3035 6.6153-.6231l7.332-3.2695c1.0292-.4592 1.4738-1.6999.9707-2.709-.2293-.4617-.6182-.7978-1.0703-.9707v0c-.4521-.173-.967-.182-1.4453.01l-4.584 1.6192v-.1836c-.013-1.0938-.9108-1.9844-2.0039-1.9844h-3.627l-3.039-1.7422c-1.0252-.5877-2.2148-.8266-3.3867-.6797v0l-3.1329.3926v-.5781a.50004994.50004994 0 0 0-.5-.5z" color="#000" font-family="sans-serif" font-weight="400" overflow="visible"/><path fill="#a8c9ce" d="m -1987.9556,1954.1155 h 3.5 v 9.5 h -3.5 z" color="#000" font-family="sans-serif" font-weight="400" overflow="visible" style="line-height:normal;font-variant-ligatures:normal;font-variant-position:normal;font-variant-caps:normal;font-variant-numeric:normal;font-variant-alternates:normal;font-feature-settings:normal;text-indent:0;text-align:start;text-decoration-line:none;text-decoration-style:solid;text-decoration-color:#000;text-transform:none;text-orientation:mixed;shape-padding:0;isolation:auto;mix-blend-mode:normal"/><path fill="#eeddd6" d="m -1979.4809,1954.7601 c 0.7155,0.027 1.4189,0.2281 2.0468,0.5879 l 3.2715,1.875 h 3.8926 c 0.5553,0 0.9971,0.4386 1.0039,0.998 l 0.012,0.4062 c 0.01,0.5493 -0.4255,0.9865 -0.9707,0.9864 h -5.7266 v 1 h 5.7266 c 0.7607,0 1.4166,-0.4457 1.7442,-1.0821 l 5.1542,-1.8222 a 0.50004994,0.50004994 0 0 0 0.02,-0.01 c 0.481,-0.1926 1.0184,0.012 1.25,0.4785 0.2553,0.512 0.038,1.1195 -0.4824,1.3516 l -7.334,3.2675 c -1.8784,0.8376 -3.9777,1.0347 -5.9785,0.5625 l -7.6036,-1.7929 v -6.3653 l 3.2579,-0.4082 c 0.2391,-0.03 0.4782,-0.042 0.7168,-0.033 z" color="#000" font-family="sans-serif" font-weight="400" overflow="visible" style="line-height:normal;font-variant-ligatures:normal;font-variant-position:normal;font-variant-caps:normal;font-variant-numeric:normal;font-variant-alternates:normal;font-feature-settings:normal;text-indent:0;text-align:start;text-decoration-line:none;text-decoration-style:solid;text-decoration-color:#000;text-transform:none;text-orientation:mixed;shape-padding:0;isolation:auto;mix-blend-mode:normal"/><path fill="#fff" style="line-height:normal;font-variant-ligatures:normal;font-variant-position:normal;font-variant-caps:normal;font-variant-numeric:normal;font-variant-alternates:normal;font-feature-settings:normal;text-indent:0;text-align:start;text-decoration-line:none;text-decoration-style:solid;text-decoration-color:#000;text-transform:none;text-orientation:mixed;shape-padding:0;isolation:auto;mix-blend-mode:normal" d="m -1987.3811,1954.8655 h 1 v 8 h -1 z" color="#000" font-family="sans-serif" font-weight="400" overflow="visible"/><path fill="#f3cfc1" style="line-height:normal;font-variant-ligatures:normal;font-variant-position:normal;font-variant-caps:normal;font-variant-numeric:normal;font-variant-alternates:normal;font-feature-settings:normal;text-indent:0;text-align:start;text-decoration-line:none;text-decoration-style:solid;text-decoration-color:#000;text-transform:none;text-orientation:mixed;shape-padding:0;isolation:auto;mix-blend-mode:normal" d="m -1982.9544,1955.1384 -0.5,0.062 v 6.3652 l 0.5,0.1172 z" color="#000" font-family="sans-serif" font-weight="400" overflow="visible"/><path fill="#85c5a4" style="line-height:normal;font-variant-ligatures:normal;font-variant-position:normal;font-variant-caps:normal;font-variant-numeric:normal;font-variant-alternates:normal;font-feature-settings:normal;text-indent:0;text-align:start;text-decoration-line:none;text-decoration-style:solid;text-decoration-color:#000;text-transform:none;text-orientation:mixed;shape-padding:0;isolation:auto;mix-blend-mode:normal" d="m -1978.9552,1937.6119 v 1.002 h 17.5 a 0.50005,0.50005 0 0 1 0.5,0.5 v 9.498 h 1 v -0.2988 h -0.6464 v -9.4981 a 0.50005,0.50005 0 0 0 -0.5,-0.5 h -17.5 v -0.7031 z" color="#000" font-family="sans-serif" font-weight="400" overflow="visible"/><path fill="#b9dfcc" d="M-1967.2242 1944.4141v1h1.5v-1zM-1976.7242 1944.4141v1h1.5v-1z" color="#000" font-family="sans-serif" font-weight="400" overflow="visible" style="line-height:normal;font-variant-ligatures:normal;font-variant-position:normal;font-variant-caps:normal;font-variant-numeric:normal;font-variant-alternates:normal;font-feature-settings:normal;text-indent:0;text-align:start;text-decoration-line:none;text-decoration-style:solid;text-decoration-color:#000;text-transform:none;text-orientation:mixed;shape-padding:0;isolation:auto;mix-blend-mode:normal"/><path fill="#484666" style="line-height:normal;font-variant-ligatures:normal;font-variant-position:normal;font-variant-caps:normal;font-variant-numeric:normal;font-variant-alternates:normal;font-feature-settings:normal;text-indent:0;text-align:start;text-decoration-line:none;text-decoration-style:solid;text-decoration-color:#000;text-transform:none;text-orientation:mixed;shape-padding:0;isolation:auto;mix-blend-mode:normal" d="M-1967.4562 1944.613v1h1.5v-1zM-1976.9562 1944.613v1h1.5v-1z" color="#000" font-family="sans-serif" font-weight="400" overflow="visible"/></g></svg>