<svg xmlns="http://www.w3.org/2000/svg" enable-background="new 0 0 64 64" viewBox="0 0 64 64"><path fill="red" d="M0,28.24v6.62c0,1.44,1.13,2.63,2.55,2.73l0.02-12.06C1.14,25.6,0,26.79,0,28.24z"/><path fill="#2d2d2d" d="M9.39 57.11c0 1.44 1.17 2.6 2.61 2.6 1.43 0 2.6-1.16 2.6-2.6V43.24H9.39V57.11zM4.64 23.91v.59L4.62 38.63v.55c0 1.1.94 1.99 2.08 1.99h1.67l7.26.01h6.04V21.92H6.72C5.58 21.92 4.65 22.81 4.64 23.91z"/><polygon fill="red" points="23.73 41.57 50.18 54.33 50.18 8.77 23.73 21.54"/><path fill="#2d2d2d" d="M54.08,4.29c-1.01,0-1.83,0.79-1.83,1.76v0.99c0.01,0.05,0.01,0.1,0,0.15v48.73c0.01,0.05,0.01,0.1,0,0.15v1
		c0,0.97,0.82,1.75,1.83,1.75c1,0,1.82-0.78,1.82-1.75V6.05C55.9,5.08,55.08,4.29,54.08,4.29z"/><path fill="red" d="M57.96 22.7v17.71c3.61-1.48 6.04-4.95 6.04-8.86C64 27.66 61.57 24.19 57.96 22.7zM18.45 44.73h-2.19v2.87h2.19c.79 0 1.43-.64 1.43-1.43S19.24 44.73 18.45 44.73z"/></svg>