<svg xmlns="http://www.w3.org/2000/svg" viewBox="0 0 48 48"><path fill="#1a1a40" d="M10 14.5h18c.28 0 .5-.22.5-.5s-.22-.5-.5-.5H10c-.28 0-.5.22-.5.5s.22.5.5.5zm0 5h10c.28 0 .5-.22.5-.5s-.22-.5-.5-.5H10c-.28 0-.5.22-.5.5s.22.5.5.5zm0 5h7c.28 0 .5-.22.5-.5s-.22-.5-.5-.5h-7c-.28 0-.5.22-.5.5s.22.5.5.5zm0 5c12.35.02 8.09.01 9.02.01.28 0 .5-.22.5-.5s-.22-.5-.5-.5c-12.35-.02-8.09-.01-9.02-.01-.28 0-.5.22-.5.5s.22.5.5.5zm0 5h11c.28 0 .5-.22.5-.5s-.22-.5-.5-.5H10c-.28 0-.5.22-.5.5s.22.5.5.5zm-3-15c.28 0 .5-.22.5-.5v-1.01c0-.28-.22-.5-.5-.5s-.5.22-.5.5V19c0 .28.22.5.5.5zm28-2c.11 0 .05 0 1.19-.37.26-.09.4-.37.32-.63a.51.51 0 0 0-.63-.32l-1.03.34c-.54.18-.41.97.16.97z"/><path fill="#1a1a40" d="m39.52 14.97-1.69.56a.51.51 0 0 0-.32.63c.09.26.37.4.63.32 1.82-.61 1.87-.69 2.14-.49.3.22.21-.96.21 15.63 0 .34-.33.58-.66.47l-10.34-3.45v-9.28l3.64-1.21c.26-.09.4-.37.32-.63a.51.51 0 0 0-.63-.32l-1.32.44V12c0-1.93-1.57-3.5-3.5-3.5H10c-1.93 0-3.5 1.57-3.5 3.5v4.01c0 .28.22.5.5.5s.5-.22.5-.5V12A2.5 2.5 0 0 1 10 9.5h18a2.5 2.5 0 0 1 2.5 2.5v5.97l-1.58.53H23c-.83 0-1.5.67-1.5 1.5v.5H21a2.5 2.5 0 0 0-2.5 2.5v2a2.5 2.5 0 0 0 2.5 2.5h.5v.5c0 .73.52 1.33 1.2 1.47l.68 4.74c.1.73.74 1.29 1.49 1.29H26c.83 0 1.5-.67 1.5-1.5v-4.5h1.42l1.58.53V36a2.5 2.5 0 0 1-2.5 2.5H10A2.5 2.5 0 0 1 7.5 36V21.04c0-.28-.22-.5-.5-.5s-.5.22-.5.5V36c0 1.93 1.57 3.5 3.5 3.5h18c1.93 0 3.5-1.57 3.5-3.5v-5.64c8.73 2.91 8.16 2.75 8.5 2.75.78 0 1.5-.63 1.5-1.5V16.39c0-1.02-1-1.75-1.98-1.42ZM21 26.5c-.83 0-1.5-.67-1.5-1.5v-2c0-.83.67-1.5 1.5-1.5h.5v5H21Zm1.5 1.5v-8c0-.28.22-.5.5-.5h5.5v9H23c-.28 0-.5-.22-.5-.5Zm4 6c0 .28-.22.5-.5.5h-1.13c-.25 0-.46-.19-.5-.43l-.65-4.57h2.78V34Z"/></svg>