<svg xmlns="http://www.w3.org/2000/svg" width="32" height="32" version="1"><path fill="#e64c65" fill-rule="evenodd" d="M32 16c0 8.794-7.205 16-16 16S0 24.794 0 16C0 7.205 7.205 0 16 0s16 7.205 16 16z" clip-rule="evenodd"/><path fill="#fff" d="M26.492 15.532c0-1.308-.374-2.617-.935-3.738-2.43-4.86-8.41-6.729-13.27-4.3-1.122.562-2.057 1.31-2.804 2.057L9.67 6H7.614V13.289h.934l6.355.187V11.42l-3.925-.187c.56-.934 1.495-1.495 2.43-2.056 3.925-2.056 8.598-.374 10.467 3.365 2.056 3.925.56 8.598-3.364 10.467-3.365 1.682-7.477.748-9.72-2.243l4.3-.187-.188-2.056H8.548l-.934.187V26h1.869v-3.365c1.308 1.308 2.803 2.43 4.299 2.804 2.43.747 4.86.56 7.476-.56 3.552-1.87 5.42-5.608 5.234-9.347z"/></svg>