<svg xmlns="http://www.w3.org/2000/svg" viewBox="0 0 64 64"><g data-name="Car Wash-car-cleaning"><rect width="6" height="3" x="4" y="54" fill="#787680"/><rect width="8" height="32" x="3" y="22" fill="#00e7f0"/><rect width="6" height="4" x="4" y="18" fill="#787680"/><rect width="4" height="6" x="5" y="7" fill="#acabb1"/><rect width="8" height="32" x="53" y="22" fill="#00e7f0"/><rect width="6" height="4" x="54" y="18" fill="#787680"/><rect width="6" height="3" x="54" y="54" fill="#787680"/><rect width="4" height="6" x="55" y="7" fill="#acabb1"/><path fill="#00e7f0" d="M49,13v2H15V13a2.006,2.006,0,0,1,2-2H47A2.006,2.006,0,0,1,49,13Z"/><rect width="22" height="4" x="21" y="7" fill="#acabb1"/><polygon fill="#787680" points="61 3 61 7 59 7 55 7 43 7 21 7 9 7 5 7 3 7 3 3 61 3"/><path fill="#57565c" d="M23,53v7a1,1,0,0,1-1,1H17a1,1,0,0,1-1-1V53Z"/><polygon fill="#ffda44" points="50 44 50 48 43 48 43 44 45 44 50 44"/><polygon fill="#ffda44" points="21 44 21 48 14 48 14 44 19 44 21 44"/><rect width="3" height="4" x="14" y="33" fill="#787680"/><rect width="3" height="4" x="47" y="33" fill="#787680"/><rect width="36" height="5" x="14" y="48" fill="#d80027"/><path fill="#2488ff" d="M47,33v7H17V33a4,4,0,0,1,4-4H43A4,4,0,0,1,47,33Z"/><path fill="#57565c" d="M48,53v7a1,1,0,0,1-1,1H42a1,1,0,0,1-1-1V53Z"/><path fill="#d80027" d="M50,42v2H14V42a2.006,2.006,0,0,1,2-2H48A2.006,2.006,0,0,1,50,42Z"/><rect width="22" height="4" x="21" y="44" fill="#be1e2d"/><path d="M50,38a1,1,0,0,0,1-1V33a1,1,0,0,0-1-1H47.9A5.017,5.017,0,0,0,43,28H21a5.017,5.017,0,0,0-4.9,4H14a1,1,0,0,0-1,1v4a1,1,0,0,0,1,1h2v1a3.009,3.009,0,0,0-3,3V53a1,1,0,0,0,1,1h1v6a2.006,2.006,0,0,0,2,2h5a2.006,2.006,0,0,0,2-2V54H40v6a2.006,2.006,0,0,0,2,2h5a2.006,2.006,0,0,0,2-2V54h1a1,1,0,0,0,1-1V42a3.009,3.009,0,0,0-3-3V38Zm-2-4h1v2H48ZM18,33a3.009,3.009,0,0,1,3-3H43a3.009,3.009,0,0,1,3,3v6H36.39l.33-1H43V36H36a1.014,1.014,0,0,0-.95.68L34.28,39H24.39l.33-1H31V36H24a1.014,1.014,0,0,0-.95.68L22.28,39H18Zm-3,3V34h1v2Zm0,9h5v2H15Zm7,15H17V54h5Zm25,0H42V54h5Zm2-8H15V49H49ZM22,47V45H42v2Zm27,0H44V45h5Zm0-5v1H15V42a1,1,0,0,1,1-1H48A1,1,0,0,1,49,42Z"/><path d="M59,14a1,1,0,0,0,1-1V8h1a1,1,0,0,0,1-1V3a1,1,0,0,0-1-1H3A1,1,0,0,0,2,3V7A1,1,0,0,0,3,8H4v5a1,1,0,0,0,1,1H6v3H4a1,1,0,0,0-1,1v3a1,1,0,0,0-1,1V54a1,1,0,0,0,1,1v2a1,1,0,0,0,1,1H6v2H2v2H12V60H8V58h2a1,1,0,0,0,1-1V55a1,1,0,0,0,1-1V22a1,1,0,0,0-1-1V18a1,1,0,0,0-1-1H8V14H9a1,1,0,0,0,1-1V8H20v2H17a3.009,3.009,0,0,0-3,3v2a1,1,0,0,0,1,1H49a1,1,0,0,0,1-1V13a3.009,3.009,0,0,0-3-3H44V8H54v5a1,1,0,0,0,1,1h1v3H54a1,1,0,0,0-1,1v3a1,1,0,0,0-1,1V54a1,1,0,0,0,1,1v2a1,1,0,0,0,1,1h2v2H52v2H62V60H58V58h2a1,1,0,0,0,1-1V55a1,1,0,0,0,1-1V22a1,1,0,0,0-1-1V18a1,1,0,0,0-1-1H58V14ZM9,56H5V55H9Zm1-26H6v2h4v8H6v2h4v8H6v2h4v1H4V47H8V45H4V37H8V35H4V27H8V25H4V23h6ZM9,19v2H5V19ZM8,12H6V8H8Zm39,0a1,1,0,0,1,1,1v1H16V13a1,1,0,0,1,1-1ZM22,10V8H42v2ZM4,6V4H60V6ZM59,56H55V55h4Zm1-26H56v2h4v8H56v2h4v8H56v2h4v1H54V47h4V45H54V37h4V35H54V27h4V25H54V23h6ZM59,19v2H55V19Zm-3-7V8h2v4Z"/><rect width="2" height="2" x="17" y="18"/><rect width="2" height="2" x="17" y="22"/><rect width="2" height="2" x="21" y="18"/><rect width="2" height="2" x="25" y="18"/><rect width="2" height="2" x="21" y="22"/><rect width="2" height="2" x="25" y="22"/><rect width="2" height="2" x="29" y="18"/><rect width="2" height="2" x="33" y="18"/><rect width="2" height="2" x="29" y="22"/><rect width="2" height="2" x="33" y="22"/><rect width="2" height="2" x="37" y="18"/><rect width="2" height="2" x="41" y="18"/><rect width="2" height="2" x="37" y="22"/><rect width="2" height="2" x="41" y="22"/><rect width="2" height="2" x="45" y="18"/><rect width="2" height="2" x="45" y="22"/></g></svg>