<svg xmlns="http://www.w3.org/2000/svg" id="Layer_1" enable-background="new 0 0 128 128" version="1.1" viewBox="0 0 128 128" xml:space="preserve"><circle cx="64" cy="64" r="50" fill="#589fff"/><circle cx="64" cy="64" r="50" fill="none" stroke="#242c88" stroke-linecap="round" stroke-linejoin="round" stroke-miterlimit="10" stroke-width="2"/><path fill="none" stroke="#fff" stroke-linecap="round" stroke-linejoin="round" stroke-miterlimit="10" stroke-width="8" d="M19,64c0-24.9,20.1-45,45-45" opacity=".4"/><path fill="none" stroke="#242c88" stroke-linecap="round" stroke-linejoin="round" stroke-miterlimit="10" stroke-width="8" d="M109,64c0,24.9-20.1,45-45,45" opacity=".2"/><circle cx="64" cy="64" r="40" fill="#fff"/><polygon fill="#5e61a3" points="85.2 75.5 63.3 68.4 67 60.6 86.4 73.2"/><line x1="47.9" x2="63.5" y1="42.7" y2="63.5" fill="none" stroke="#ff5751" stroke-linecap="round" stroke-linejoin="round" stroke-miterlimit="10" stroke-width="4"/><polygon fill="none" stroke="#242c88" stroke-linecap="round" stroke-linejoin="round" stroke-miterlimit="10" stroke-width="2" points="85.2 75.5 63.3 68.4 67 60.6 86.4 73.2"/><circle cx="64" cy="64" r="40" fill="none" stroke="#242c88" stroke-linecap="round" stroke-linejoin="round" stroke-miterlimit="10" stroke-width="2"/><circle cx="64" cy="64" r="5.7" fill="#ffc408"/><circle cx="64" cy="64" r="5.7" fill="none" stroke="#242c88" stroke-linecap="round" stroke-linejoin="round" stroke-miterlimit="10" stroke-width="2"/><line x1="64" x2="64" y1="31" y2="32" fill="none" stroke="#242c88" stroke-linecap="round" stroke-linejoin="round" stroke-miterlimit="10" stroke-width="4"/><line x1="64" x2="64" y1="96" y2="97" fill="none" stroke="#242c88" stroke-linecap="round" stroke-linejoin="round" stroke-miterlimit="10" stroke-width="4"/><line x1="31" x2="32" y1="64" y2="64" fill="none" stroke="#242c88" stroke-linecap="round" stroke-linejoin="round" stroke-miterlimit="10" stroke-width="4"/><line x1="96" x2="97" y1="64" y2="64" fill="none" stroke="#242c88" stroke-linecap="round" stroke-linejoin="round" stroke-miterlimit="10" stroke-width="4"/><line x1="46.6" x2="48" y1="33.9" y2="36.3" fill="none" stroke="#242c88" stroke-linecap="round" stroke-linejoin="round" stroke-miterlimit="10" stroke-width="2"/><line x1="80" x2="81.4" y1="91.7" y2="94.2" fill="none" stroke="#242c88" stroke-linecap="round" stroke-linejoin="round" stroke-miterlimit="10" stroke-width="2"/><line x1="34" x2="36.3" y1="81.3" y2="80" fill="none" stroke="#242c88" stroke-linecap="round" stroke-linejoin="round" stroke-miterlimit="10" stroke-width="2"/><line x1="91.7" x2="93.9" y1="48" y2="46.7" fill="none" stroke="#242c88" stroke-linecap="round" stroke-linejoin="round" stroke-miterlimit="10" stroke-width="2"/><line x1="34.3" x2="36.3" y1="46.9" y2="48" fill="none" stroke="#242c88" stroke-linecap="round" stroke-linejoin="round" stroke-miterlimit="10" stroke-width="2"/><line x1="91.7" x2="94" y1="80" y2="81.3" fill="none" stroke="#242c88" stroke-linecap="round" stroke-linejoin="round" stroke-miterlimit="10" stroke-width="2"/><line x1="46.8" x2="48" y1="93.8" y2="91.7" fill="none" stroke="#242c88" stroke-linecap="round" stroke-linejoin="round" stroke-miterlimit="10" stroke-width="2"/><line x1="80" x2="81.3" y1="36.3" y2="34" fill="none" stroke="#242c88" stroke-linecap="round" stroke-linejoin="round" stroke-miterlimit="10" stroke-width="2"/></svg>