<svg xmlns="http://www.w3.org/2000/svg" data-name="1" viewBox="0 0 128 128"><path fill="#757575" d="M64 113.75a49.86 49.86 0 0 0 11.11-1.26l12.16 11.13a63.91 63.91 0 0 0 16.73-9.67l-3.56-16.09a49.68 49.68 0 0 0 11.12-19.23l15.71-5a64.6 64.6 0 0 0 0-19.32l-15.71-5a49.68 49.68 0 0 0-11.12-19.23L104 14.05a63.91 63.91 0 0 0-16.73-9.67L75.11 15.51a49.58 49.58 0 0 0-22.21 0L40.73 4.38A63.91 63.91 0 0 0 24 14.05l3.56 16.09a49.68 49.68 0 0 0-11.12 19.24l-15.71 5a64.59 64.59 0 0 0 0 19.32l15.71 5a49.69 49.69 0 0 0 11.12 19.16L24 113.95a63.91 63.91 0 0 0 16.73 9.67l12.16-11.13A49.86 49.86 0 0 0 64 113.75ZM41.33 64A22.67 22.67 0 1 1 64 86.67 22.67 22.67 0 0 1 41.33 64Z"/></svg>