<svg xmlns="http://www.w3.org/2000/svg" viewBox="0 0 64 64"><path fill="#2b4a54" d="m63.94 24.98.06-7.66c0-.66-.25-1.28-.71-1.75-.45-.46-1.07-.72-1.73-.73l-58.85-.48h-.02c-1.34 0-2.45 1.09-2.46 2.45l-.06 7.66c1.57.24 3.01.97 4.14 2.12a7.31 7.31 0 0 1 2.11 5.21c-.03 3.7-2.8 6.74-6.36 7.22L0 46.68c0 .66.25 1.28.71 1.75.45.46 1.07.72 1.73.73l58.84.46h.02c1.34 0 2.45-1.09 2.46-2.45l.06-7.67a7.265 7.265 0 0 1-4.14-2.12 7.27 7.27 0 0 1-2.11-5.2c.01-1.96.79-3.8 2.19-5.17a7.309 7.309 0 0 1 4.18-2.03zm-9.66 16.28a3.902 3.902 0 0 1-1.17 2.76c-.73.72-1.71 1.13-2.75 1.13h-.03l-36.87-.3a3.86 3.86 0 0 1-2.76-1.17 3.875 3.875 0 0 1-1.13-2.78l.14-18.17a3.907 3.907 0 0 1 3.94-3.87l36.87.29a3.91 3.91 0 0 1 3.88 3.94l-.12 18.17z"/><path fill="#2b4a54" d="m50.53 21.22-36.88-.29h-.01c-1.01 0-1.84.82-1.85 1.83l-.14 18.17c0 .5.19.96.53 1.31.35.35.82.55 1.3.55l36.88.3c.44 0 .96-.19 1.31-.54.35-.34.55-.81.55-1.3l.14-18.17c.01-1.03-.82-1.85-1.83-1.86zm-29.92 7.83c-.01.08-.02.14-.04.2-.02.05-.05.08-.08.11-.02.02-.06.03-.09.03h-1.95v6.29c0 .04-.02.08-.04.11-.03.03-.07.05-.13.07-.06.02-.13.04-.24.05-.1.01-.24.02-.38.02-.15 0-.29-.01-.39-.02-.09-.01-.18-.03-.24-.05a.316.316 0 0 1-.13-.07.21.21 0 0 1-.04-.11v-6.29H14.9c-.04 0-.07-.01-.1-.03-.02-.03-.05-.06-.07-.11a.774.774 0 0 1-.04-.2c-.01-.08-.01-.19-.01-.3 0-.12 0-.23.01-.31.01-.08.02-.15.04-.2.02-.05.05-.09.07-.11.03-.02.06-.03.1-.03h5.5c.03 0 .07.01.09.03.03.02.06.06.08.11.02.04.03.11.04.2a2.364 2.364 0 0 1 0 .61zm2.53 6.63c0 .04-.01.08-.04.11-.02.03-.06.05-.12.07s-.14.04-.25.05a3.626 3.626 0 0 1-.76 0c-.1-.01-.19-.03-.25-.05s-.1-.04-.12-.07a.15.15 0 0 1-.04-.11v-7.36c0-.04.01-.08.04-.11.02-.03.07-.05.13-.07.06-.02.13-.04.24-.05a3.793 3.793 0 0 1 .76 0c.1.01.19.03.25.05.06.02.1.04.12.07.03.03.04.07.04.11v7.36zm7.08-.7c0 .06-.01.12-.02.18-.01.05-.03.09-.05.13-.02.03-.05.07-.09.12-.05.04-.13.1-.26.18-.12.07-.28.14-.46.21-.19.07-.39.12-.63.17-.24.04-.49.07-.76.07-.53 0-1.01-.08-1.45-.25-.42-.17-.79-.41-1.09-.74-.3-.33-.54-.73-.69-1.23-.17-.49-.25-1.05-.25-1.71 0-.66.09-1.25.27-1.77.18-.51.42-.94.74-1.29.32-.35.7-.62 1.15-.79.44-.19.93-.27 1.47-.27.22 0 .42.01.63.05.2.03.38.08.56.13.17.06.32.13.45.21.13.07.24.14.29.2.05.05.09.1.11.13.02.04.03.08.04.14.02.05.02.11.03.2.01.07.01.17.01.28 0 .12 0 .23-.01.31-.01.08-.02.15-.04.21s-.05.09-.07.11c-.03.02-.06.04-.1.04-.06 0-.13-.04-.23-.11-.09-.06-.21-.14-.36-.23-.14-.09-.32-.17-.52-.24-.21-.07-.45-.1-.73-.1-.31 0-.59.06-.83.19-.25.12-.45.31-.62.54-.18.24-.3.53-.39.86-.08.33-.13.71-.13 1.13 0 .46.05.86.14 1.2.09.33.23.61.4.83.18.22.39.38.63.49.25.1.53.15.84.15.29 0 .53-.03.73-.09.21-.07.38-.14.53-.23.14-.07.27-.14.36-.22.09-.06.17-.09.22-.09.04 0 .07.01.1.02.02.02.04.05.06.1.01.04.02.11.03.2.01.09.01.21.01.35-.01.07-.01.16-.02.23zm6.82.8c-.02.03-.06.06-.12.08-.06.02-.14.04-.26.05-.1.01-.25.02-.41.02-.26 0-.44-.01-.56-.03a.597.597 0 0 1-.25-.09.407.407 0 0 1-.12-.14l-2.35-3.7v3.7c0 .04-.01.08-.03.11-.03.03-.07.06-.13.08-.05.02-.13.04-.24.05a3.793 3.793 0 0 1-.76 0c-.1-.01-.19-.03-.25-.05a.322.322 0 0 1-.13-.08.202.202 0 0 1-.03-.11v-7.35c0-.04.01-.08.03-.11.03-.03.07-.05.13-.07.06-.02.14-.04.25-.05a3.626 3.626 0 0 1 .76 0c.1.01.19.03.24.05.06.02.1.04.13.07.02.03.03.07.03.11v3.32l2.28-3.31c.03-.05.06-.09.1-.13.04-.03.09-.06.17-.07.06-.02.14-.04.24-.05.1 0 .24-.01.39-.01.15 0 .29.01.39.02.1.01.2.03.26.05.06.02.1.05.12.08.02.03.04.06.04.1 0 .07-.02.14-.06.22-.03.07-.1.19-.2.34l-2.15 2.81 2.33 3.52c.09.17.14.28.17.33.01.05.02.09.02.13 0 .04-.01.08-.03.11zm5.7-.21c-.01.08-.03.14-.05.2-.01.05-.04.08-.07.1-.03.02-.06.03-.09.03H38.6c-.13 0-.25-.03-.33-.11-.09-.08-.13-.21-.13-.38v-6.8c0-.18.04-.3.13-.38.08-.07.2-.11.33-.11h3.89c.04 0 .07.01.1.03.02.02.05.05.07.1.02.05.03.11.04.2.01.07.01.18.01.29 0 .11 0 .22-.01.29-.01.08-.02.14-.04.2a.43.43 0 0 1-.07.1c-.03.02-.06.03-.1.03H39.7v1.91h2.36c.03 0 .06.01.09.03.03.02.06.05.08.1.02.04.03.1.04.19a2.193 2.193 0 0 1 0 .58c-.01.07-.02.13-.04.18-.02.05-.05.08-.08.1-.03.02-.06.03-.09.03H39.7v2.2h2.82c.03 0 .06.01.09.03.03.02.06.06.07.1.02.05.04.11.05.2.01.07.01.18.01.29.01.09.01.19 0 .27zm6.58-6.52c-.01.08-.02.14-.04.2-.02.05-.05.08-.08.11-.03.02-.06.03-.09.03h-1.95v6.29c0 .04-.02.08-.04.11-.03.03-.07.05-.13.07s-.14.04-.24.05c-.1.01-.24.02-.39.02-.14 0-.28-.01-.38-.02-.1-.01-.18-.03-.24-.05s-.1-.04-.13-.07a.21.21 0 0 1-.04-.11v-6.29H43.6c-.04 0-.07-.01-.1-.03-.02-.03-.05-.06-.07-.11-.02-.05-.03-.11-.04-.2s-.02-.19-.02-.3c0-.12.01-.23.02-.31.01-.08.02-.15.04-.2.02-.05.05-.09.07-.11.03-.02.06-.03.1-.03h5.5c.03 0 .06.01.09.03.03.02.06.06.08.11.02.04.03.11.04.2.01.08.01.19.01.31.01.12.01.22 0 .3z"/></svg>