<svg xmlns="http://www.w3.org/2000/svg" data-name="Layer 3" viewBox="0 0 64 64"><path fill="#8dbde2" d="M56,53l-9,9H10a2,2,0,0,1-2-2V4a2,2,0,0,1,2-2H54a2,2,0,0,1,2,2Z"/><path fill="#bad8ee" d="M54,2H10V58a2,2,0,0,0,2,2H49l7-7V4A2,2,0,0,0,54,2Z"/><path fill="#326c56" d="M45,22h3a2,2,0,0,0,2-2V15l-7-2L39.162,7.627A3.885,3.885,0,0,0,36,6H27a5.323,5.323,0,0,0-3.5,1.317L17.617,12.46a2.182,2.182,0,0,1-1.436.54h0A2.18,2.18,0,0,0,14,15.181V19a3,3,0,0,0,3,3h0"/><path fill="#3a7c63" d="M43,13,39.162,7.627A3.885,3.885,0,0,0,36,6H27a5.323,5.323,0,0,0-3.5,1.317L17.617,12.46a2.182,2.182,0,0,1-1.436.54c-.057,0-.109.012-.164.017,0,.055-.017.107-.017.164V17a3,3,0,0,0,3,3H50V15Z"/><path fill="#5197cd" d="M39.162,7.627A3.885,3.885,0,0,0,36,6H27a5.323,5.323,0,0,0-3.5,1.317L17.617,12.46a2.191,2.191,0,0,1-.642.388L43,12.992Z"/><rect width="6" height="6" x="12" y="32" fill="#fff"/><rect width="6" height="6" x="12" y="42" fill="#fff"/><rect width="6" height="6" x="12" y="52" fill="#fff"/><rect width="6" height="6" x="34" y="32" fill="#fff"/><rect width="6" height="6" x="34" y="42" fill="#fff"/><rect width="8.001" height="2" x="22.999" y="32" fill="#43525b"/><rect width="10" height="2" x="21" y="36" fill="#43525b"/><rect width="8.001" height="2" x="22.999" y="42" fill="#43525b"/><rect width="10" height="2" x="21" y="46" fill="#43525b"/><rect width="8.001" height="2" x="22.999" y="52" fill="#43525b"/><rect width="10" height="2" x="21" y="56" fill="#43525b"/><rect width="8.001" height="2" x="44.999" y="32" fill="#43525b"/><rect width="10" height="2" x="43" y="36" fill="#43525b"/><rect width="8.001" height="2" x="44.999" y="42" fill="#43525b"/><rect width="10" height="2" x="43" y="46" fill="#43525b"/><rect width="8.485" height="2" x="13.757" y="31" fill="#50a98f" transform="rotate(-45 18 32)"/><rect width="8.485" height="2" x="13.757" y="41" fill="#50a98f" transform="rotate(-45 18 42)"/><rect width="8.485" height="2" x="13.757" y="51" fill="#50a98f" transform="rotate(-45 18 52)"/><rect width="8.485" height="2" x="35.757" y="41" fill="#50a98f" transform="rotate(-45 40 42)"/><rect width="8.485" height="2" x="35.757" y="31" fill="#50a98f" transform="rotate(-45 40 32)"/><circle cx="21" cy="22" r="4" fill="#69737a"/><path fill="#f3b756" d="M50,18H48.5A1.5,1.5,0,0,1,47,16.5h0A1.5,1.5,0,0,1,48.5,15H50"/><rect width="2" height="6.999" x="30" y="6" fill="#3a7c63"/><rect width="3" height="2" x="34" y="15" fill="#326c56"/><rect width="3" height="2" x="22" y="15" fill="#326c56"/><path fill="#5197cd" d="M47,62V55a2,2,0,0,1,2-2h7"/><path fill="#90979c" d="M21,18a3.977,3.977,0,0,0-2.281.719,3.994,3.994,0,0,0,5.562,5.561A3.994,3.994,0,0,0,21,18Z"/><rect width="2" height="2" x="20" y="21" fill="#69737a"/><circle cx="41" cy="22" r="4" fill="#69737a"/><path fill="#90979c" d="M41,18a3.977,3.977,0,0,0-2.281.719,3.994,3.994,0,0,0,5.562,5.561A3.994,3.994,0,0,0,41,18Z"/><rect width="2" height="2" x="40" y="21" fill="#69737a"/><path fill="#ce4a4b" d="M17,14V12.835a2.162,2.162,0,0,1-.819.165A2.18,2.18,0,0,0,14,15.181V17A3,3,0,0,0,17,14Z"/><path d="M12,39h6a1,1,0,0,0,1-1V32.414l2.707-2.707-1.414-1.414L17.586,31H12a1,1,0,0,0-1,1v6A1,1,0,0,0,12,39Zm1-6h2.586l-1.293,1.293,1.414,1.414L17,34.414V37H13Z"/><path d="M12,49h6a1,1,0,0,0,1-1V42.414l2.707-2.707-1.414-1.414L17.586,41H12a1,1,0,0,0-1,1v6A1,1,0,0,0,12,49Zm1-6h2.586l-1.293,1.293,1.414,1.414L17,44.414V47H13Z"/><path d="M12 59h6a1 1 0 0 0 1-1V52.414l2.707-2.707-1.414-1.414L17.586 51H12a1 1 0 0 0-1 1v6A1 1 0 0 0 12 59zm1-6h2.586l-1.293 1.293 1.414 1.414L17 54.414V57H13zM34 39h6a1 1 0 0 0 1-1V32.414l2.707-2.707-1.414-1.414L39.586 31H34a1 1 0 0 0-1 1v6A1 1 0 0 0 34 39zm1-6h2.586l-1.293 1.293 1.414 1.414L39 34.414V37H35z"/><rect width="8.001" height="2" x="22.999" y="32"/><rect width="10" height="2" x="21" y="36"/><rect width="8.001" height="2" x="22.999" y="42"/><rect width="10" height="2" x="21" y="46"/><rect width="8.001" height="2" x="22.999" y="52"/><rect width="10" height="2" x="21" y="56"/><rect width="8.001" height="2" x="44.999" y="32"/><rect width="10" height="2" x="43" y="36"/><rect width="8.001" height="2" x="44.999" y="42"/><rect width="10" height="2" x="43" y="46"/><path d="M43.707 39.707l-1.414-1.414L39.586 41H34a1 1 0 0 0-1 1v6a1 1 0 0 0 1 1h6a1 1 0 0 0 1-1V42.414zM39 47H35V43h2.586l-1.293 1.293 1.414 1.414L39 44.414zM16.09 22.886A4.993 4.993 0 0 0 25.9 23H36.1a5 5 0 0 0 9.8 0H48a3 3 0 0 0 3-3V15a1 1 0 0 0-.725-.961l-6.664-1.9L39.977 7.046A4.9 4.9 0 0 0 36 5H27a6.326 6.326 0 0 0-4.164 1.564l-5.878 5.144a1.181 1.181 0 0 1-.777.292A3.185 3.185 0 0 0 13 15.181V19A4 4 0 0 0 16.09 22.886zM21 25a3 3 0 1 1 3-3A3 3 0 0 1 21 25zm20 0a3 3 0 1 1 3-3A3 3 0 0 1 41 25zm7.5-9H49v1h-.5a.5.5 0 0 1 0-1zm-2.016-.965A2.477 2.477 0 0 0 46 16.5 2.5 2.5 0 0 0 48.5 19H49v1a1 1 0 0 1-1 1H45.9a5 5 0 0 0-9.8 0H25.9a4.991 4.991 0 0 0-9.74-.192A2 2 0 0 1 15 19V17.858A4 4 0 0 0 18 14v-.154L42.857 14zM38.349 8.208l2.7 3.78L32 11.932V7h4A2.893 2.893 0 0 1 38.349 8.208zm-14.2-.139A4.326 4.326 0 0 1 27 7h3v4.92l-10.175-.063zM16 14.037a1.991 1.991 0 0 1-1 1.685v-.541A1.167 1.167 0 0 1 16 14.037z"/><rect width="3" height="2" x="34" y="15"/><rect width="3" height="2" x="22" y="15"/><path d="M10,63H47a1,1,0,0,0,.707-.293l9-9A1,1,0,0,0,57,53V4a3,3,0,0,0-3-3H10A3,3,0,0,0,7,4V60A3,3,0,0,0,10,63Zm38-3.414V55a1,1,0,0,1,1-1h4.586ZM9,4a1,1,0,0,1,1-1H54a1,1,0,0,1,1,1V52H49a3,3,0,0,0-3,3v6H10a1,1,0,0,1-1-1Z"/><rect width="2" height="2" x="40" y="21"/><rect width="2" height="2" x="20" y="21"/></svg>