<svg xmlns="http://www.w3.org/2000/svg" viewBox="0 0 500 101.25"><defs><style>.cls-1{fill:#575756;}.cls-2{fill:#19a09b;}</style></defs><g id="Camada_2" data-name="Camada 2"><g id="Camada_1-2" data-name="Camada 1"><path class="cls-1" d="M57.72,26.58,53.14,39.27c-6.6,13.54-4.24,15.6-18.55,6.85l9.95,27.34a4.41,4.41,0,0,1-2.45,5.65,4.33,4.33,0,0,1-5.63-2.55L22.43,38A4.36,4.36,0,0,1,25,32.48a4.65,4.65,0,0,1,4,.45l13.85,8c.89-1.34,6.84-16.21,8.45-16.54A4.36,4.36,0,0,1,57.72,26.58Z"/><path class="cls-1" d="M98.85,56.45,85.41,20.05l-2.06.76a6.44,6.44,0,0,0-3.8,8.26l6.57,17.72a3.75,3.75,0,0,0,1.15,1.65l.16.12a.08.08,0,0,1,0,0,.07.07,0,0,1-.07.08h0l-.66-.34-.85-.51h0c-13.36-8.14-11.23-5.9-17.7,7.37L63.84,43.38a5.93,5.93,0,0,0-8.12-3.33L53.77,41h0c2.25,6.17,9.74,26.72,9.92,27.24a4.33,4.33,0,0,0,5.45,2.34,4.27,4.27,0,0,0,1.44-.88,4.52,4.52,0,0,0,1-1.36L78.45,53.6,92.3,61.55a4.62,4.62,0,0,0,4,.45,4.32,4.32,0,0,0,2.84-4.24A4.07,4.07,0,0,0,98.85,56.45Z"/><circle class="cls-2" cx="97.14" cy="10.4" r="4.77"/><circle class="cls-2" cx="97.85" cy="26.38" r="7.16"/><circle class="cls-2" cx="86.55" cy="14.2" r="2.39"/><path class="cls-2" d="M94.2,72.32A48.17,48.17,0,0,1,75.62,93.8a49.09,49.09,0,0,1-27.76,7.41,49.59,49.59,0,0,1-27.45-9.57,54,54,0,0,1-5.64-4.83,49.07,49.07,0,0,1-8.86-12,54.34,54.34,0,0,1-3-6.85,56.08,56.08,0,0,1-2-7.24A55.31,55.31,0,0,1,0,53.29a57.68,57.68,0,0,1,.25-7.55,55.49,55.49,0,0,1,1.38-7.45A51.36,51.36,0,0,1,17.53,12.74c.95-.86,2-1.64,3-2.43s2.08-1.51,3.17-2.18,2.2-1.32,3.32-2S29.28,5,30.47,4.49s2.37-1,3.57-1.44c.61-.22,1.22-.41,1.83-.61l.92-.3.94-.25A51.23,51.23,0,0,1,45.32.38,54.36,54.36,0,0,1,53.08,0a56.11,56.11,0,0,1,7.75.81,56.68,56.68,0,0,1,7.56,2,59.81,59.81,0,0,1,7.2,3.06,5.41,5.41,0,0,1-4.88,9.65,1.27,1.27,0,0,1-.23-.12h0A42,42,0,0,0,46.31,10,43,43,0,0,0,23,19.26,43.47,43.47,0,0,0,8.81,66a48.08,48.08,0,0,0,2.4,6.13,45.84,45.84,0,0,0,3.3,5.72,47.51,47.51,0,0,0,4.12,5.18,48.53,48.53,0,0,0,4.87,4.52,45.09,45.09,0,0,0,24.58,9.68A45.75,45.75,0,0,0,92.69,71.62a.83.83,0,0,1,1.51.7Z"/><path class="cls-1" d="M175.89,75.44H165l6.76-31.84L153,75.44h-9.43L138.06,43.6,131.3,75.44H120.41l10.12-47.73h11.92a7.1,7.1,0,0,1,2.14.32,6.41,6.41,0,0,1,1.76.86,4.91,4.91,0,0,1,1.27,1.34,4.31,4.31,0,0,1,.63,1.71l2.5,23.88a4.81,4.81,0,0,1,.06.77v.86c0,.31,0,.6,0,.87s0,.51,0,.73,0,.48,0,.7c.13-.49.29-1,.46-1.43s.33-.83.52-1.28a6.38,6.38,0,0,1,.65-1.22l14.15-23.88a7.47,7.47,0,0,1,1.42-1.8,8.53,8.53,0,0,1,1.88-1.33A10,10,0,0,1,172,28a9.25,9.25,0,0,1,2.18-.28H186Z"/><polygon class="cls-1" points="189.48 40.47 182.05 75.44 192.98 75.44 200.41 40.47 189.48 40.47"/><path class="cls-1" d="M190.5,33.32a3.92,3.92,0,0,0,1,1.78,4.75,4.75,0,0,0,1.81,1.14,7.2,7.2,0,0,0,2.43.4,8.77,8.77,0,0,0,2.6-.4,8.38,8.38,0,0,0,2.3-1.14,6.93,6.93,0,0,0,1.76-1.78,6.09,6.09,0,0,0,1-2.35,4.63,4.63,0,0,0,0-2.34,4.22,4.22,0,0,0-1-1.79,4.9,4.9,0,0,0-1.82-1.13,7.2,7.2,0,0,0-2.43-.4,8.82,8.82,0,0,0-2.6.4,8.37,8.37,0,0,0-2.28,1.13,7.44,7.44,0,0,0-1.75,1.79,6.67,6.67,0,0,0-1,2.34A5,5,0,0,0,190.5,33.32Z"/><path class="cls-1" d="M215,40.47a4,4,0,0,1,.63,2.36,10.55,10.55,0,0,1-.43,2.93,8.39,8.39,0,0,1,1.83-2.18,14.61,14.61,0,0,1,2.7-1.85A16.23,16.23,0,0,1,223,40.45a12.29,12.29,0,0,1,3.33-.48,11.71,11.71,0,0,1,5.35,1.13,8.36,8.36,0,0,1,3.46,3.2,11.46,11.46,0,0,1,1.52,5,22.27,22.27,0,0,1-.5,6.58L232,75.44H221.09l4-19a10.14,10.14,0,0,0,.28-3,3.55,3.55,0,0,0-.53-1.7,1.94,1.94,0,0,0-1-.77,4,4,0,0,0-1.13-.18,12.06,12.06,0,0,0-2.81.33,10.21,10.21,0,0,0-2.52.95,7.32,7.32,0,0,0-1.91,1.48,4.2,4.2,0,0,0-1,2l-4.23,19.95H199.34l7.43-35Z"/><path class="cls-1" d="M260.79,75.44a3.52,3.52,0,0,1-.63-2,9,9,0,0,1,.2-2.46c0-.16.07-.3.1-.43a2.73,2.73,0,0,1,.1-.44,9.18,9.18,0,0,1-1.85,2.22A14.45,14.45,0,0,1,256,74.21a15.67,15.67,0,0,1-3.2,1.26,12.56,12.56,0,0,1-3.33.47,11.71,11.71,0,0,1-5.35-1.13,8.56,8.56,0,0,1-3.46-3.2,11.68,11.68,0,0,1-1.52-5,22.25,22.25,0,0,1,.5-6.58l4.17-19.55h10.89l-4.07,19.05a10.11,10.11,0,0,0-.28,3,3.71,3.71,0,0,0,.53,1.7,1.92,1.92,0,0,0,1,.76,3.6,3.6,0,0,0,1.15.19,11.64,11.64,0,0,0,2.82-.34,9.75,9.75,0,0,0,2.51-1,7.17,7.17,0,0,0,1.92-1.48,4.15,4.15,0,0,0,1-2l4.26-20h10.9l-7.43,35Z"/><path class="cls-1" d="M293.69,50.66,291,63.11a2.38,2.38,0,0,0,0,1.14,1.38,1.38,0,0,0,.35.66,1,1,0,0,0,.52.3,2,2,0,0,0,.51.07,3.05,3.05,0,0,0,.67-.07,3.15,3.15,0,0,1,.53-.06,5.1,5.1,0,0,1,1.65.26,5.45,5.45,0,0,1,1.32.67,6.25,6.25,0,0,1,1,.91,6.83,6.83,0,0,1,.75,1.05,9,9,0,0,1,1,2.87,20,20,0,0,1-2.71,1.86,28.44,28.44,0,0,1-3.17,1.59,25.6,25.6,0,0,1-3.09,1.09,9.54,9.54,0,0,1-2.52.42,10.23,10.23,0,0,1-4.16-.78,7.13,7.13,0,0,1-2.83-2.17,7.22,7.22,0,0,1-1.38-3.29,11.27,11.27,0,0,1,.15-4.22l3.16-14.75h-5l1.17-5.46a5.18,5.18,0,0,1,1.91-3.15,8.27,8.27,0,0,1,4-1.52l1.33-6.19a7.45,7.45,0,0,1,.92-2.4,12.73,12.73,0,0,1,1.32-1.83,15.93,15.93,0,0,1,1.69-1.6h8.23l-2.53,11.92h8.33L302,50.66Z"/><path class="cls-1" d="M337.32,51a14.13,14.13,0,0,0-2.64-5.72,13.42,13.42,0,0,0-4.9-3.87A15.43,15.43,0,0,0,323.1,40a18.57,18.57,0,0,0-4.89.65,22.77,22.77,0,0,0-4.68,1.81,24.11,24.11,0,0,0-4.25,2.82,25.27,25.27,0,0,0-3.6,3.64,24.42,24.42,0,0,0-2.73,4.3A20.54,20.54,0,0,0,301.29,58a16,16,0,0,0-.07,7,14.13,14.13,0,0,0,2.65,5.73,13.36,13.36,0,0,0,4.89,3.86,15.32,15.32,0,0,0,6.68,1.42,19,19,0,0,0,4.9-.65A22.8,22.8,0,0,0,325,73.47a23.44,23.44,0,0,0,4.24-2.81,24.34,24.34,0,0,0,3.6-3.65,22.91,22.91,0,0,0,2.73-4.29A20.65,20.65,0,0,0,337.26,58,16.14,16.14,0,0,0,337.32,51Zm-11.09,7a7.82,7.82,0,0,1-1.13,2.71,9.27,9.27,0,0,1-2,2.23,9.67,9.67,0,0,1-2.56,1.5,7.62,7.62,0,0,1-2.83.55,6,6,0,0,1-2.6-.55,5.31,5.31,0,0,1-1.92-1.5,5.24,5.24,0,0,1-1-2.23,6.53,6.53,0,0,1,0-2.71,8.06,8.06,0,0,1,1.13-2.72,10.43,10.43,0,0,1,2-2.25,9,9,0,0,1,2.54-1.51A7.65,7.65,0,0,1,320.7,51a5.94,5.94,0,0,1,2.6.55A5.13,5.13,0,0,1,325.22,53a5.66,5.66,0,0,1,1,2.25A6.4,6.4,0,0,1,326.23,58Z"/><path class="cls-2" d="M431.24,41.15a4.88,4.88,0,0,0-.55.75,9.78,9.78,0,0,0-.52,1,8.2,8.2,0,0,0-.52,1.27,7.35,7.35,0,0,0-1.39-1.5,8.45,8.45,0,0,0-1.73-1.1,10.58,10.58,0,0,0-1.88-.67,7.82,7.82,0,0,0-1.83-.22,18.7,18.7,0,0,0-4.79.63,23.08,23.08,0,0,0-4.59,1.78,23.39,23.39,0,0,0-4.15,2.76,24.31,24.31,0,0,0-3.53,3.57,22.86,22.86,0,0,0-2.67,4.21,19.78,19.78,0,0,0-1.63,4.67,16.06,16.06,0,0,0-.07,6.79,13.78,13.78,0,0,0,2.55,5.61,13.16,13.16,0,0,0,4.71,3.81,14.34,14.34,0,0,0,6.44,1.41h.23a9.36,9.36,0,0,0,2.27-.31,15.32,15.32,0,0,0,2.28-.79,12.71,12.71,0,0,0,2-1.06,7.86,7.86,0,0,0,1.47-1.17l.29-.2a8.78,8.78,0,0,0-.06,1.39,4.23,4.23,0,0,0,.13.93,2.64,2.64,0,0,0,.26.72h8.45l7.28-34.3Zm-6.52,20.1a9.44,9.44,0,0,1-3.1,2.86,7.77,7.77,0,0,1-3.95,1.09,5.83,5.83,0,0,1-2.56-.54,5.28,5.28,0,0,1-1.86-1.46,5.38,5.38,0,0,1-1-2.19,6.28,6.28,0,0,1,0-2.66,7.93,7.93,0,0,1,1.11-2.66,9.82,9.82,0,0,1,2-2.2,9.51,9.51,0,0,1,2.5-1.49,7.45,7.45,0,0,1,2.79-.54,5.5,5.5,0,0,1,3.47,1.11A5.18,5.18,0,0,1,426,55.44Z"/><path class="cls-2" d="M461.8,57.29a7.44,7.44,0,0,0-2.39-1.75,31.9,31.9,0,0,0-3.18-1.27c-.59-.19-1.08-.35-1.47-.45s-.74-.21-1-.28-.59-.17-.84-.26a4.15,4.15,0,0,1-.8-.45.58.58,0,0,1-.29-.47,2.58,2.58,0,0,1,0-.67,2.16,2.16,0,0,1,.82-1.2,2.31,2.31,0,0,1,1.5-.53,5.78,5.78,0,0,1,1.65.18,7,7,0,0,1,1,.39,7.09,7.09,0,0,0,.78.39,2.55,2.55,0,0,0,1.11.19,4.31,4.31,0,0,0,1.91-.43,14,14,0,0,0,2-1.21l2.94-2.57c-.07-.11-.22-.35-.46-.7a9.14,9.14,0,0,0-1-1.21,17.37,17.37,0,0,0-1.49-1.42,12.08,12.08,0,0,0-2-1.38,12.45,12.45,0,0,0-2.38-1,9.16,9.16,0,0,0-2.76-.41,13.28,13.28,0,0,0-4.44.8,16.61,16.61,0,0,0-4.19,2.2,14.82,14.82,0,0,0-3.34,3.32,10.81,10.81,0,0,0-1.9,4.12,8.93,8.93,0,0,0,0,4.28,7.27,7.27,0,0,0,1.66,3,9.84,9.84,0,0,0,2.79,2.1,36,36,0,0,0,3.36,1.48q.92.36,1.5.63a5.36,5.36,0,0,1,.91.53,1.27,1.27,0,0,1,.45.52,1.33,1.33,0,0,1,.08.6l0,.17a2,2,0,0,1-.37.75,2.68,2.68,0,0,1-.66.6,3.71,3.71,0,0,1-.8.39,2.4,2.4,0,0,1-.81.15,3.21,3.21,0,0,1-.8-.11,2.46,2.46,0,0,1-.67-.31c-.37-.27-.7-.53-1-.8a9.85,9.85,0,0,0-.91-.74,6.38,6.38,0,0,0-.93-.54,2.53,2.53,0,0,0-1-.21,6.64,6.64,0,0,0-1.84.25,11.08,11.08,0,0,0-1.75.63l-4,1.9a15,15,0,0,0,1.71,3.92,12.37,12.37,0,0,0,2.51,3,10.91,10.91,0,0,0,3.15,1.86,10.27,10.27,0,0,0,3.62.65,15,15,0,0,0,5.32-1,16.78,16.78,0,0,0,4.57-2.58A15.89,15.89,0,0,0,461,68.56a13.68,13.68,0,0,0,1.9-4.53,9.79,9.79,0,0,0,.18-4.07A5.53,5.53,0,0,0,461.8,57.29Z"/><path class="cls-2" d="M499.88,49.85a11.12,11.12,0,0,0-1.71-4.91,9,9,0,0,0-3.62-3.13,11.86,11.86,0,0,0-5.33-1.11,9.18,9.18,0,0,0-1.9.24,20.21,20.21,0,0,0-2.25.65,12.94,12.94,0,0,0-2.17,1,7,7,0,0,0-1.65,1.27l2.22-10.44a4.52,4.52,0,0,0,.06-1.89,7.32,7.32,0,0,0-.42-1.51,6.65,6.65,0,0,0-.78-1.33h-8.52l-9.92,46.76h10.68l4.37-20.63a2.9,2.9,0,0,1,1-1.38,7.49,7.49,0,0,1,1.81-1.16,11.94,11.94,0,0,1,2.25-.79,10.27,10.27,0,0,1,2.35-.29,2.34,2.34,0,0,1,2.22,1.51,6.45,6.45,0,0,1,.2,4l-4,18.7h10.67l4-19.16A19.57,19.57,0,0,0,499.88,49.85Z"/><path class="cls-2" d="M420.55,21.2l-37.7,54.25h-9.24l-2-9a7.28,7.28,0,0,1-.16-1.81,8.08,8.08,0,0,1,.16-1.39,2.46,2.46,0,0,0,.08-.39.7.7,0,0,1,.09-.29.69.69,0,0,1,.09-.23l-8.42,13.12h-9.26L344.5,21.2h6.85a6.07,6.07,0,0,1,2,.32,6.52,6.52,0,0,1,1.7.88,5.79,5.79,0,0,1,1.26,1.31,4.61,4.61,0,0,1,.69,1.63l4.54,31.17a7.63,7.63,0,0,1,.13,1.07q0,.53,0,1c0,.37,0,.72,0,1,.11-.32.24-.67.39-1s.28-.64.44-1a7.7,7.7,0,0,1,.61-1.07l4.67-7-4.69-20.86h5.67a6.57,6.57,0,0,1,6.4,5.12l.49,2.18a8,8,0,0,1,.09,1v.73c0,.09,0,.18,0,.27,0,.35-.05.68-.1,1,.09-.33.2-.66.33-1l.09-.23h0c.09-.24.2-.5.32-.77a8.54,8.54,0,0,1,.6-1.09h0l2-3a8.13,8.13,0,0,1,1.44-1.68A10,10,0,0,1,384.32,29a7.5,7.5,0,0,1,2.12-.31h9.28L379.08,51.17l1.39,6.21a8.54,8.54,0,0,1,.11,1.1c0,.35,0,.69,0,1s-.05.69-.09,1a9.69,9.69,0,0,1,.32-1c.11-.3.25-.64.41-1a8.63,8.63,0,0,1,.6-1.1l22.6-32a8.39,8.39,0,0,1,1.43-1.68,9.54,9.54,0,0,1,1.85-1.31,10.33,10.33,0,0,1,2.07-.84,7.5,7.5,0,0,1,2.12-.31Z"/></g></g></svg>