<svg xmlns="http://www.w3.org/2000/svg" viewBox="0 0 500 192.42"><defs><style>.cls-1{fill:#fff;}.cls-2{fill:#19a09b;}</style></defs><g id="Camada_2" data-name="Camada 2"><g id="Camada_1-2" data-name="Camada 1"><path class="cls-1" d="M109.7,50.51,101,74.62c-12.54,25.74-8.06,29.66-35.25,13l18.92,52A8.42,8.42,0,0,1,80,150.35a8.22,8.22,0,0,1-10.68-4.86L42.63,72.27a8.6,8.6,0,0,1-.49-2.47,8.24,8.24,0,0,1,5.4-8.08,8.82,8.82,0,0,1,7.55.87l26.33,15.1c1.69-2.54,13-30.81,16-31.43A8.28,8.28,0,0,1,109.7,50.51Z"/><path class="cls-1" d="M187.87,107.29,162.32,38.1l-3.92,1.45a12.23,12.23,0,0,0-7.22,15.7l12.48,33.66a7.17,7.17,0,0,0,2.19,3.14,3.55,3.55,0,0,0,.31.23.18.18,0,0,1,0,.11.12.12,0,0,1-.13.14h0l-1.26-.64-1.6-1h0c-25.4-15.47-21.35-11.21-33.64,14l-8.19-22.5a11.27,11.27,0,0,0-15.43-6.31l-3.72,1.77h0c4.28,11.72,18.51,50.78,18.87,51.77a8.21,8.21,0,0,0,10.34,4.44,7.74,7.74,0,0,0,2.73-1.67,8.11,8.11,0,0,0,1.91-2.58l13.06-28L175.41,117a8.77,8.77,0,0,0,7.54.86,8.22,8.22,0,0,0,5.41-8.06A8.34,8.34,0,0,0,187.87,107.29Z"/><circle class="cls-2" cx="184.6" cy="19.77" r="9.07"/><circle class="cls-2" cx="185.96" cy="50.13" r="13.6"/><circle class="cls-2" cx="164.48" cy="26.98" r="4.53"/><path class="cls-2" d="M179,137.44a91.68,91.68,0,0,1-35.31,40.83,93.47,93.47,0,0,1-104.93-4.12A103.77,103.77,0,0,1,28.06,165a102.78,102.78,0,0,1-9.26-10.71,100.2,100.2,0,0,1-7.58-12,104,104,0,0,1-5.72-13,106.34,106.34,0,0,1-3.76-13.76A104.28,104.28,0,0,1,.07,101.27,104.24,104.24,0,0,1,.54,86.92,103,103,0,0,1,3.16,72.77,97.73,97.73,0,0,1,33.31,24.2c1.81-1.63,3.75-3.1,5.67-4.61s3.94-2.86,6-4.13,4.18-2.51,6.3-3.72,4.34-2.26,6.59-3.2,4.51-1.87,6.8-2.75C65.85,5.39,67,5,68.18,4.64l1.74-.56,1.78-.49A97.5,97.5,0,0,1,86.13.71,102.27,102.27,0,0,1,100.88,0,107.09,107.09,0,0,1,115.6,1.55,110.26,110.26,0,0,1,130,5.27a110.35,110.35,0,0,1,13.68,5.82,10.27,10.27,0,0,1-9.27,18.34L134,29.2l0,0A79.81,79.81,0,0,0,88,19,81.58,81.58,0,0,0,43.74,36.6a82.66,82.66,0,0,0-27,88.91,92.27,92.27,0,0,0,4.57,11.65A89,89,0,0,0,27.57,148a90.11,90.11,0,0,0,7.83,9.84,91.89,91.89,0,0,0,9.26,8.59,85.79,85.79,0,0,0,46.71,18.4,87,87,0,0,0,84.79-48.75,1.58,1.58,0,0,1,2.86,1.32Z"/><path class="cls-1" d="M289,94.16h-14.2l8.82-41.52-24.5,41.52H246.86l-7.17-41.52-8.81,41.52h-14.2l13.2-62.23h15.55a9,9,0,0,1,2.78.41,8,8,0,0,1,2.3,1.13,6.35,6.35,0,0,1,1.65,1.74,5.52,5.52,0,0,1,.82,2.23l3.26,31.14a5.39,5.39,0,0,1,.09,1v1.13c0,.41,0,.78,0,1.13s0,.67,0,1-.05.62-.05.91c.18-.64.38-1.26.61-1.87s.43-1.08.67-1.67a9.17,9.17,0,0,1,.85-1.59l18.46-31.14a9.9,9.9,0,0,1,1.84-2.34,10.55,10.55,0,0,1,2.46-1.74,13,13,0,0,1,2.8-1.06,11.36,11.36,0,0,1,2.84-.37h15.47Z"/><polygon class="cls-1" points="306.75 48.56 297.07 94.16 311.31 94.16 321 48.56 306.75 48.56"/><path class="cls-1" d="M308.08,39.25a5.17,5.17,0,0,0,1.3,2.32,6.18,6.18,0,0,0,2.37,1.48,9.37,9.37,0,0,0,3.17.52,11.47,11.47,0,0,0,3.39-.52,10.71,10.71,0,0,0,3-1.48,9.39,9.39,0,0,0,2.3-2.32,8.17,8.17,0,0,0,1.31-3.07,6.08,6.08,0,0,0,0-3.06,5.26,5.26,0,0,0-1.33-2.32,6.22,6.22,0,0,0-2.36-1.48,9.21,9.21,0,0,0-3.17-.52,11.11,11.11,0,0,0-3.39.52,10.51,10.51,0,0,0-3,1.48,9.67,9.67,0,0,0-2.28,2.32,8.79,8.79,0,0,0-1.34,3.06A6.47,6.47,0,0,0,308.08,39.25Z"/><path class="cls-1" d="M340.06,48.56a5.24,5.24,0,0,1,.83,3.08,13.37,13.37,0,0,1-.57,3.83,10.86,10.86,0,0,1,2.39-2.85,19.34,19.34,0,0,1,3.52-2.41,21.24,21.24,0,0,1,4.17-1.67,15.87,15.87,0,0,1,4.34-.63,15,15,0,0,1,7,1.48,10.91,10.91,0,0,1,4.52,4.17,15,15,0,0,1,2,6.53,29.37,29.37,0,0,1-.65,8.58l-5.39,25.49H348l5.25-24.84a13,13,0,0,0,.37-3.89,4.65,4.65,0,0,0-.69-2.21,2.52,2.52,0,0,0-1.33-1A5,5,0,0,0,350.1,62a15.55,15.55,0,0,0-3.67.44,13.59,13.59,0,0,0-3.28,1.23,9.24,9.24,0,0,0-2.5,1.94,5.39,5.39,0,0,0-1.32,2.56l-5.52,26h-14.2l9.68-45.6Z"/><path class="cls-1" d="M399.74,94.16a4.67,4.67,0,0,1-.83-2.56,12.65,12.65,0,0,1,.26-3.21,4.59,4.59,0,0,0,.13-.57c0-.17.08-.36.13-.56A11.37,11.37,0,0,1,397,90.15a18.12,18.12,0,0,1-3.49,2.41,20.82,20.82,0,0,1-4.17,1.65,16.64,16.64,0,0,1-4.34.61,15.25,15.25,0,0,1-7-1.48,11,11,0,0,1-4.51-4.17,15,15,0,0,1-2-6.54,29.28,29.28,0,0,1,.65-8.57l5.43-25.5h14.2L386.54,73.4a12.72,12.72,0,0,0-.37,3.89,4.69,4.69,0,0,0,.69,2.22,2.59,2.59,0,0,0,1.3,1,5.31,5.31,0,0,0,1.5.23,15.54,15.54,0,0,0,3.67-.43,13.2,13.2,0,0,0,3.28-1.24,9.21,9.21,0,0,0,2.5-1.93,5.43,5.43,0,0,0,1.32-2.56l5.56-26H420.2l-9.69,45.6Z"/><path class="cls-1" d="M442.65,61.85l-3.48,16.24a3.17,3.17,0,0,0-.06,1.48,1.88,1.88,0,0,0,.45.87,1.47,1.47,0,0,0,.68.39,2.82,2.82,0,0,0,.67.09,4.28,4.28,0,0,0,.87-.09,3.61,3.61,0,0,1,.69-.09,6.38,6.38,0,0,1,2.15.35,6.76,6.76,0,0,1,1.72.87,8,8,0,0,1,2.3,2.56A11.64,11.64,0,0,1,450,88.26a26,26,0,0,1-3.54,2.43,36.11,36.11,0,0,1-4.13,2.06,34.12,34.12,0,0,1-4,1.44,12.49,12.49,0,0,1-3.28.54,13.27,13.27,0,0,1-5.42-1,9.35,9.35,0,0,1-3.7-2.82,9.62,9.62,0,0,1-1.8-4.3,15.22,15.22,0,0,1,.2-5.5l4.12-19.24h-6.51l1.52-7.12a6.75,6.75,0,0,1,2.5-4.11,10.73,10.73,0,0,1,5.27-2l1.74-8.08a9.65,9.65,0,0,1,1.19-3.13,18.73,18.73,0,0,1,1.72-2.39A21.68,21.68,0,0,1,438,33h10.73l-3.3,15.55h10.86l-2.82,13.33Z"/><path class="cls-1" d="M499.54,62.26a18.34,18.34,0,0,0-3.45-7.47,17.49,17.49,0,0,0-6.38-5A20,20,0,0,0,481,47.91a24.45,24.45,0,0,0-6.39.85,30.18,30.18,0,0,0-6.1,2.36A32.24,32.24,0,0,0,463,54.79a33,33,0,0,0-4.69,4.76,30.86,30.86,0,0,0-3.56,5.6,27,27,0,0,0-2.17,6.21,21.2,21.2,0,0,0-.09,9.1,18.48,18.48,0,0,0,3.46,7.47,17.41,17.41,0,0,0,6.38,5A20,20,0,0,0,471,94.82a24.8,24.8,0,0,0,6.38-.85,30.08,30.08,0,0,0,6.11-2.37A30.68,30.68,0,0,0,489,87.93a32.39,32.39,0,0,0,4.69-4.75,30.4,30.4,0,0,0,3.56-5.61,26.66,26.66,0,0,0,2.18-6.21A21,21,0,0,0,499.54,62.26Zm-14.46,9.15A10.31,10.31,0,0,1,483.6,75a12.42,12.42,0,0,1-6,4.86,9.93,9.93,0,0,1-3.69.72,7.86,7.86,0,0,1-3.39-.72A6.72,6.72,0,0,1,466.75,75a8.64,8.64,0,0,1,.05-3.54,10.32,10.32,0,0,1,1.47-3.54,13.27,13.27,0,0,1,2.59-2.94,12.1,12.1,0,0,1,3.32-2,10,10,0,0,1,3.69-.72,7.83,7.83,0,0,1,3.39.72,7,7,0,0,1,2.5,2,7.2,7.2,0,0,1,1.34,2.94A8.29,8.29,0,0,1,485.08,71.41Z"/><path class="cls-2" d="M328.19,137.8a5.08,5.08,0,0,0-.72,1,11.1,11.1,0,0,0-.68,1.33,11.85,11.85,0,0,0-.69,1.65,9.28,9.28,0,0,0-1.8-1.95,10.91,10.91,0,0,0-2.26-1.43,12.21,12.21,0,0,0-2.45-.88,10.53,10.53,0,0,0-2.38-.29A23.8,23.8,0,0,0,311,138a29,29,0,0,0-6,2.32,30.8,30.8,0,0,0-5.43,3.6,31.52,31.52,0,0,0-4.59,4.65,30,30,0,0,0-3.49,5.49,26.45,26.45,0,0,0-2.12,6.08,21,21,0,0,0-.09,8.86,18,18,0,0,0,3.32,7.31,17.15,17.15,0,0,0,6.14,5,18.85,18.85,0,0,0,8.41,1.83h.3a12.34,12.34,0,0,0,3-.4,20.78,20.78,0,0,0,3-1,18,18,0,0,0,2.62-1.38,10.29,10.29,0,0,0,1.91-1.54l.39-.26a11.06,11.06,0,0,0-.09,1.82,6.62,6.62,0,0,0,.17,1.21,3.55,3.55,0,0,0,.34.94h11l9.49-44.73ZM319.68,164a12.24,12.24,0,0,1-4,3.73,10.17,10.17,0,0,1-5.15,1.43,7.62,7.62,0,0,1-3.34-.71,6.87,6.87,0,0,1-2.43-1.91,7.19,7.19,0,0,1-1.32-2.85,8.29,8.29,0,0,1,0-3.47,10.42,10.42,0,0,1,1.45-3.47,12.52,12.52,0,0,1,2.56-2.87,12.08,12.08,0,0,1,3.25-1.94,9.74,9.74,0,0,1,3.64-.7,7.09,7.09,0,0,1,4.53,1.45,6.81,6.81,0,0,1,2.45,3.74Z"/><path class="cls-2" d="M368,158.84a9.47,9.47,0,0,0-3.13-2.27,40.53,40.53,0,0,0-4.14-1.66c-.77-.25-1.4-.45-1.92-.59s-1-.27-1.36-.37a9.34,9.34,0,0,1-1.09-.34,5.2,5.2,0,0,1-1-.57.81.81,0,0,1-.38-.62,2.88,2.88,0,0,1,0-.87,2.81,2.81,0,0,1,1.07-1.57,3,3,0,0,1,2-.69,7.9,7.9,0,0,1,2.16.23,8.43,8.43,0,0,1,1.25.52l1,.51a3.47,3.47,0,0,0,1.44.24,5.74,5.74,0,0,0,2.49-.56,18.91,18.91,0,0,0,2.66-1.58l3.83-3.35c-.08-.15-.28-.46-.59-.92a12.68,12.68,0,0,0-1.28-1.57,22,22,0,0,0-1.94-1.85,15.86,15.86,0,0,0-2.55-1.8,16.36,16.36,0,0,0-3.1-1.33,11.74,11.74,0,0,0-3.6-.54,17.37,17.37,0,0,0-5.79,1,21.79,21.79,0,0,0-5.46,2.88,19.43,19.43,0,0,0-4.36,4.32,14.07,14.07,0,0,0-2.47,5.38,11.48,11.48,0,0,0,0,5.57,9.71,9.71,0,0,0,2.16,3.94,12.85,12.85,0,0,0,3.65,2.72,41,41,0,0,0,4.38,1.94c.79.31,1.44.59,2,.83a6.88,6.88,0,0,1,1.18.68,1.64,1.64,0,0,1,.58.68,1.71,1.71,0,0,1,.11.79l-.05.21a2.56,2.56,0,0,1-.48,1,3.54,3.54,0,0,1-.86.78,4.4,4.4,0,0,1-1,.52,3.5,3.5,0,0,1-1.06.19,3.92,3.92,0,0,1-1.05-.15,2.93,2.93,0,0,1-.87-.4c-.48-.35-.92-.69-1.32-1a13,13,0,0,0-1.19-1,6.7,6.7,0,0,0-1.21-.69,3.16,3.16,0,0,0-1.34-.28,8.74,8.74,0,0,0-2.4.32,14.12,14.12,0,0,0-2.28.83l-5.28,2.46a19.71,19.71,0,0,0,2.23,5.13,16.55,16.55,0,0,0,3.28,3.85,13.9,13.9,0,0,0,4.11,2.43,13.38,13.38,0,0,0,4.72.85,19.4,19.4,0,0,0,6.94-1.26,21.56,21.56,0,0,0,5.95-3.36,20.17,20.17,0,0,0,4.45-4.91,17.9,17.9,0,0,0,2.49-5.92,12.83,12.83,0,0,0,.23-5.29A7.45,7.45,0,0,0,368,158.84Z"/><path class="cls-2" d="M417.7,149.15a14.55,14.55,0,0,0-2.24-6.41,11.71,11.71,0,0,0-4.72-4.08,15.59,15.59,0,0,0-7-1.45,11.85,11.85,0,0,0-2.46.32,24.23,24.23,0,0,0-2.94.85,17.27,17.27,0,0,0-2.83,1.29,9.15,9.15,0,0,0-2.15,1.66l2.9-13.61a6.32,6.32,0,0,0,.08-2.47,11.23,11.23,0,0,0-.55-2,8.24,8.24,0,0,0-1-1.74H383.7l-12.94,61h13.92l5.7-26.9a3.73,3.73,0,0,1,1.26-1.8,9.9,9.9,0,0,1,2.35-1.52,16.69,16.69,0,0,1,2.94-1,13.27,13.27,0,0,1,3.06-.38,3.06,3.06,0,0,1,2.9,2,8.45,8.45,0,0,1,.26,5.28L398,182.53h13.91l5.28-25A25.68,25.68,0,0,0,417.7,149.15Z"/><path class="cls-2" d="M314.24,111.78l-49.16,70.75H253l-2.64-11.75a9.94,9.94,0,0,1-.21-2.36,10.26,10.26,0,0,1,.21-1.81,3.4,3.4,0,0,0,.11-.51.94.94,0,0,1,.11-.38.73.73,0,0,1,.12-.3l-11,17.11H227.68l-12.61-70.75H224a8.15,8.15,0,0,1,4.85,1.58,6.74,6.74,0,0,1,1.64,1.69,6.05,6.05,0,0,1,.91,2.14l5.92,40.64a10.77,10.77,0,0,1,.17,1.39c0,.47,0,.9,0,1.3s0,.93,0,1.36c.14-.43.31-.88.51-1.36s.36-.83.57-1.3a10.26,10.26,0,0,1,.79-1.39l6.09-9.08-6.11-27.2h7.39a8.57,8.57,0,0,1,8.35,6.68l.63,2.83a9.24,9.24,0,0,1,.12,1.27c0,.33,0,.65,0,.95,0,.11,0,.23,0,.35,0,.45-.07.89-.12,1.32a12.52,12.52,0,0,1,.42-1.32c0-.1.07-.2.11-.3h0q.18-.47.42-1a10.08,10.08,0,0,1,.79-1.42h0l2.65-4a10.16,10.16,0,0,1,1.87-2.19,12.68,12.68,0,0,1,2.38-1.71A12.8,12.8,0,0,1,267,122a9.94,9.94,0,0,1,2.77-.41h12.09l-21.69,29.32L262,159a10.06,10.06,0,0,1,.15,1.43c0,.46,0,.89,0,1.29s-.07.9-.13,1.32c.12-.42.25-.86.43-1.32s.32-.83.53-1.29a10.66,10.66,0,0,1,.78-1.43l29.47-41.78a11.08,11.08,0,0,1,1.87-2.2,12.21,12.21,0,0,1,2.41-1.7,12.65,12.65,0,0,1,2.7-1.1,9.59,9.59,0,0,1,2.77-.41Z"/></g></g></svg>