<svg xmlns="http://www.w3.org/2000/svg" viewBox="0 0 64 64"><path fill="#d3d3d3" d="M40,43H17V31.06l13.02-.03L45,31C39,34,40,39,40,43Z"/><path fill="#afafaf" d="M40 42.97l-7-4v-4L30.02 31 45 30.97C39 33.97 40 38.97 40 42.97zM29 31v4H23.48a9.009 9.009 0 00-6.42-3.94L17 31z"/><path fill="#999" d="M48.292,31.8a9.014,9.014,0,1,1-2.451,1.641Z"/><path fill="#f2f2f2" d="M50.356,35.276A5.005,5.005,0,1,1,48,37Z"/><path fill="#ddd" d="M52.628,39.1,48,31.306V20.041a1.5,1.5,0,0,0-.975-1.407l-5.113-1.917A1.415,1.415,0,0,0,40,18.042h0a1.414,1.414,0,0,0,.89,1.314L45,21V32l4.975,8.506a1.5,1.5,0,1,0,2.653-1.4Z"/><path fill="#999" d="M24.95,39l-.46,4A9,9,0,0,1,7,40a8.428,8.428,0,0,1,.06-1.01A8.991,8.991,0,0,1,16,31a9.284,9.284,0,0,1,1.06.06A9.009,9.009,0,0,1,23.48,35,8.842,8.842,0,0,1,24.95,39Z"/><path fill="#f2f2f2" d="M20,43a5,5,0,1,1,.9-4.01Z"/><path fill="#d3d3d3" d="M51,22h3a0,0,0,0,1,0,0v6a0,0,0,0,1,0,0H51a3,3,0,0,1-3-3v0A3,3,0,0,1,51,22Z"/><path fill="#c1272d" d="M45,31H30V28.526a2.627,2.627,0,0,1,1.325-2.283L36.306,23.4a2.4,2.4,0,0,1,1.487-.3L45,24Z"/><path fill="#a67c52" d="M20,27V25a2,2,0,0,0-2-2h0a2,2,0,0,0-2,2v6H30V28.807A1.807,1.807,0,0,0,28.193,27Z"/><path fill="#ddd" d="M28,43H18l-2-4H28a2,2,0,0,1,2,2h0A2,2,0,0,1,28,43Z"/><path fill="#d3d3d3" d="M16,27v4a8.991,8.991,0,0,0-8.94,7.99L7,39,3.15,38A13,13,0,0,1,16,27Z"/><rect width="1" height="6" x="53" y="22" fill="#ddd"/><path d="M52,30a9.955,9.955,0,0,0-3,.464v-2.02A3.959,3.959,0,0,0,51,29h3a1,1,0,0,0,1-1V22a1,1,0,0,0-1-1H51a3.959,3.959,0,0,0-2,.556V20.041A2.516,2.516,0,0,0,47.376,17.7L42.263,15.78a2.415,2.415,0,0,0-1.745,4.5L44,21.677v1.19l-6.876-.859a1,1,0,0,0-.62.124l-7,4a1,1,0,0,0-.16.121A2.787,2.787,0,0,0,28.193,26H21V25a3,3,0,0,0-6,0v1.045a13.9,13.9,0,0,0-12.835,11.8,1,1,0,0,0,.736,1.12l3.11.808c0,.075-.011.148-.011.224a10,10,0,0,0,19.165,4H40a1.027,1.027,0,0,0,.342-.069c.028-.011.054-.02.08-.033a.982.982,0,0,0,.281-.19l.008-.009a1.009,1.009,0,0,0,.155-.2c.01-.017.009-.037.018-.054a.95.95,0,0,0,.063-.191.94.94,0,0,0,.039-.194A.578.578,0,0,0,41,43c0-.5-.015-1.016-.031-1.541-.1-3.346-.182-6.521,3.238-8.834l.39.666A9.991,9.991,0,1,0,52,30Zm-1-7h2v4H51a2,2,0,0,1,0-4Zm-9.739-4.573A.414.414,0,0,1,41,18.042a.4.4,0,0,1,.179-.341.4.4,0,0,1,.382-.048l5.113,1.918a.505.505,0,0,1,.326.47V31.306a1,1,0,0,0,.14.51l4.612,7.773a.5.5,0,0,1-.218.659.479.479,0,0,1-.379.035A.538.538,0,0,1,50.838,40L46,31.729V21a1,1,0,0,0-.628-.929Zm6.818,20.816,1.012,1.73A2.489,2.489,0,0,0,50.565,42.2a2.488,2.488,0,0,0,1.9-.178,2.5,2.5,0,0,0,1.043-3.378c-.008-.015-.015-.03-.024-.044L51.951,36c.016,0,.032,0,.049,0a4.039,4.039,0,1,1-3.921,3.243ZM31,27.58l6.207-3.547,6.793.85V30H31V27.58Zm1.5,12.288L36.235,42H30.816A2.966,2.966,0,0,0,31,41a3,3,0,0,0-3-3H25.8a9.94,9.94,0,0,0-.634-2H29a1,1,0,0,0,1-1V32.666l2,2.667V39A1,1,0,0,0,32.5,39.868ZM22.008,32H28v2H24A10.019,10.019,0,0,0,22.008,32ZM17,25a1,1,0,0,1,2,0v2a1,1,0,0,0,1,1h8.193a.808.808,0,0,1,.807.807V30H17ZM4.312,37.269A12.1,12.1,0,0,1,15,28.044v2.007a10.018,10.018,0,0,0-8.742,7.723ZM16,48a8,8,0,1,1,7.74-10h-2.1A5.994,5.994,0,1,0,16,46a5.941,5.941,0,0,0,4.462-2h2.452A8.008,8.008,0,0,1,16,48Zm-.895-8.553,2,4a1,1,0,0,0,.239.3A3.988,3.988,0,1,1,19.456,38H16a1,1,0,0,0-.895,1.447ZM25,42H18.618l-1-2H28a1,1,0,0,1,0,2Zm13.963-.744L34,38.42V35a1,1,0,0,0-.2-.6L32,32h9.78C38.862,34.748,38.876,38.264,38.963,41.256ZM52,48a8.009,8.009,0,0,1-8-8,7.909,7.909,0,0,1,1.668-4.877l1.124,1.921A5.944,5.944,0,0,0,46,40a6.063,6.063,0,1,0,4.836-5.875l-1.068-1.8A8,8,0,1,1,52,48Z"/></svg>