<svg xmlns="http://www.w3.org/2000/svg" viewBox="0 0 48 48"><g data-name="30. Motor Sport"><path fill="#c4455e" d="m37 20-12 8-4-5v-4a4 4 0 0 1 4-4c5.63 0 7.38-.42 9.19 1Z"/><path fill="#db5669" d="M32 15v.79a5.17 5.17 0 0 1-2.87 4.64c-1.72.87-2.83 1.62-4.79 1.29A5.11 5.11 0 0 1 21 19.66V19a4 4 0 0 1 4-4Z"/><path fill="#c4455e" d="M24.05 24.33 20.7 26H16L1 19.62V16h9.2l3.45 3H21Z"/><path fill="#db5669" d="M23.47 23.31a8.23 8.23 0 0 1-4 .69c-2 0-1.79-.13-15-5.75A2.45 2.45 0 0 1 3 16h7.2l3.45 3H21Z"/><path fill="#c4455e" d="M47 18.26A7.21 7.21 0 0 1 45.22 23c-1.34 1.53-2.57 1.88-5.22 3l-7 7v4H16V26h4.7L31 20.86A5.81 5.81 0 0 0 32.93 12L29.7 8h2c6 0 15.3 3.68 15.3 10.26Z"/><path fill="#db5669" d="M47 18.26A7.21 7.21 0 0 1 45.22 23c-1.34 1.53-2.57 1.88-5.22 3l-7 7v1h-6.09a9.91 9.91 0 0 1-9.72-8h3.51L31 20.86A5.81 5.81 0 0 0 32.93 12L29.7 8h2c6 0 15.3 3.68 15.3 10.26Z"/><path fill="#2c435e" d="M47 33a7 7 0 1 1-10.85-5.85A7 7 0 0 1 47 33Z"/><path fill="#374f68" d="M45.85 36.85A6.92 6.92 0 0 1 42 38a7 7 0 0 1-5.85-10.85 7 7 0 0 1 9.7 9.7Z"/><path fill="#edebf2" d="M44 33a4 4 0 1 1-6.2-3.34A4 4 0 0 1 44 33Z"/><circle cx="40" cy="33" r="2" fill="#7c7d7d"/><path fill="#2c435e" d="M14.71 35a7 7 0 1 1-1.06-6.12Z"/><path fill="#374f68" d="M14.71 35a6.82 6.82 0 0 1-.87 1.85A6.92 6.92 0 0 1 10 38a7 7 0 0 1-5.85-10.85 7 7 0 0 1 9.5 1.73Z"/><path fill="#edebf2" d="M11.77 34.14a4 4 0 1 1-.6-3.49Z"/><path fill="#425b72" d="M22.72 22H17a3 3 0 0 1-3-3h7Z"/><path fill="#7c7d7d" d="M16 28v7H8a2 2 0 0 1-1.31-3.5A1.93 1.93 0 0 1 8 31Z"/><path fill="#919191" d="M16 28v4c-8.75 0-8.58.17-9.31-.5A1.93 1.93 0 0 1 8 31Z"/><path fill="#fc6" d="M46 22h-1a3 3 0 0 1-2-5.24c1-.93 2-.76 3.61-.76a7.23 7.23 0 0 1-.61 6Z"/><path fill="#ffde76" d="M46.78 20H46a3 3 0 0 1-3-3 1 1 0 0 1 0-.24c1-.93 2-.76 3.61-.76a7.06 7.06 0 0 1 .17 4Z"/><path d="M43.26 25.7a8.19 8.19 0 0 0 4.32-10C45.75 10.18 37.47 7 31.66 7h-2a1 1 0 0 0-.78 1.62c3.38 4.23 3.69 4.44 4.06 5.65-1.15-.36-1.15-.27-8-.27a5 5 0 0 0-4.9 4H14c-3.36-2.92-3.32-3-3.82-3H1a1 1 0 0 0-1 1c0 3.68-.19 4.2.61 4.54L15 26.66v.65l-1 .38A8 8 0 0 0 0 33c0 8.24 11.06 11.08 15 3.84C15 38 15.9 38 16 38c18.65 0 17.19.09 17.6-.22A8 8 0 0 0 40 41c8.55 0 11.15-11.77 3.26-15.3Zm2.6-8.7a6.05 6.05 0 0 1-.31 3.57c-.21.52-.14.43-.55.43a2 2 0 0 1 0-4ZM25 16c6.72 0 7-.17 8.12.5a4.8 4.8 0 0 1-2.58 3.5l-6.09 3L22 18.77A3 3 0 0 1 25 16Zm-4.58 4 .58 1c-3.82 0-4.93.33-5.71-1ZM2 17h7.83a38.91 38.91 0 0 0 3.25 2.81A4 4 0 0 0 17 23h5.14l.51.91L20.46 25H16.2L2 19Zm13 17H8a1 1 0 0 1 0-2c.26 0-.24.16 7-2.56ZM2 33a6 6 0 0 1 9.92-4.54L7.75 30A3 3 0 0 0 5 33a3 3 0 0 0 3 3h5.18A6 6 0 0 1 2 33Zm30 3H17v-9c5 0 3 .46 7.54-1.8.56-.32-2.34 1.17 6.9-3.45a6.78 6.78 0 0 0 3.76-6.09c0-2.86-1.49-4.24-3.42-6.66C38 9 43.5 12.4 45.07 15A4 4 0 0 0 44 22.85c-.92.85-1.43 1-4.13 2.16A8 8 0 0 0 32 33Zm8 3a6 6 0 0 1-2.82-11.29l1 2.94a3 3 0 1 0 1.9-.64l-1-2.93A6 6 0 1 1 40 39Zm0-7a1 1 0 0 1 0 2 1 1 0 0 1 0-2Z"/><path d="M22 32h-2a1 1 0 0 0 0 2h2a1 1 0 0 0 0-2Z"/></g></svg>