<svg xmlns="http://www.w3.org/2000/svg" viewBox="0 0 64 64"><path fill="#212529" d="m22.94 30.38 12.12 7-14 24.24L18 52.93l-9.06 1.69 14-24.24z"/><path fill="#111315" d="m22.94 30.38-5.61 9.71c1.14 2.23 4 2.84 6.17 2.75a7.85 7.85 0 0 1 2.15.21c1.48.6 2.87 2.1 4.61 2.64l4.8-8.31Z"/><path fill="#212529" d="m41.06 30.38-12.12 7 14 24.24L46 52.93l9.06 1.69-14-24.24z"/><path fill="#111315" d="m41.06 30.38-12.12 7 4.8 8.31c1.74-.54 3.13-2 4.61-2.64a7.89 7.89 0 0 1 2.15-.21c2.16.09 5-.53 6.17-2.75Z"/><path fill="#dd051d" d="M31.58 35.37 19.31 56.65 18 52.93l-3.89.73L26.4 32.38l5.18 2.99zM49.9 53.66l-3.9-.73-1.31 3.73-12.27-21.29 5.18-2.99 12.3 21.28z"/><path fill="#a60416" d="m37.6 32.38-5.18 3 4.79 8.3c1.78-1.39 4.12-.49 6.25-1.14zm-11.2 0-5.86 10.15c2.13.65 4.47-.25 6.25 1.14l4.79-8.3z"/><path fill="#fccd1d" d="M50.55 23.5c0-2.11 1.57-4.44 1-6.34S48.2 14.24 47 12.6s-1.3-4.48-3-5.69-4.35-.42-6.32-1S34.11 3 32 3s-3.83 2.24-5.73 2.86-4.68-.14-6.32 1-1.75 4-3 5.69-3.85 2.59-4.49 4.56.95 4.23.95 6.34-1.57 4.44-.95 6.34S15.8 32.76 17 34.4s1.3 4.48 3 5.69 4.35.42 6.32 1S29.89 44 32 44s3.83-2.24 5.73-2.86 4.68.14 6.32-1 1.75-4 3-5.69 3.85-2.59 4.49-4.56-.99-4.28-.99-6.39Z"/><circle cx="32" cy="23.5" r="14.5" fill="#f9a215"/><path fill="#fccd1d" d="m33.37 16 1.52 2.63a1.54 1.54 0 0 0 1.06.76L39 20a1.53 1.53 0 0 1 .85 2.56l-2.1 2.22a1.5 1.5 0 0 0-.4 1.22l.36 3a1.57 1.57 0 0 1-2.22 1.58l-2.81-1.27a1.6 1.6 0 0 0-1.32 0l-2.81 1.27A1.57 1.57 0 0 1 26.31 29l.36-3a1.5 1.5 0 0 0-.4-1.22l-2.1-2.22A1.53 1.53 0 0 1 25 20l3-.59a1.54 1.54 0 0 0 1.06-.76L30.63 16a1.59 1.59 0 0 1 2.74 0Z"/></svg>