<svg xmlns="http://www.w3.org/2000/svg" data-name="line expand copy" viewBox="0 0 48 48"><path fill="#232323" d="M24,7.078A20.461,20.461,0,0,0,9.609,42.084a.75.75,0,1,0,1.055-1.066,18.956,18.956,0,1,1,1.67,1.469.75.75,0,1,0-.924,1.182A20.257,20.257,0,0,0,24,48,20.461,20.461,0,0,0,24,7.078Z"/><path fill="#232323" d="M15.6 42.026c.01.007.015.018.026.024s.015 0 .021.006a16.632 16.632 0 0 0 16.714 0c.006 0 .014 0 .021-.006s.016-.017.026-.024a16.857 16.857 0 0 0 6.088-6.091c.005-.008.014-.01.019-.018s0-.018.009-.027a16.629 16.629 0 0 0 0-16.7c-.005-.009 0-.018-.009-.027s-.017-.016-.024-.027A16.865 16.865 0 0 0 32.4 13.052c-.01-.007-.015-.018-.026-.024s-.018 0-.027-.009a16.635 16.635 0 0 0-16.7 0c-.009 0-.018 0-.027.009s-.016.017-.026.024a16.865 16.865 0 0 0-6.083 6.082c-.007.011-.018.016-.024.027s0 .018-.009.027a16.629 16.629 0 0 0 0 16.7c0 .009 0 .019.009.027s.014.01.019.018A16.857 16.857 0 0 0 15.6 42.026zm.137-27.305l.887 1.536a.751.751 0 0 0 .651.375.75.75 0 0 0 .648-1.125l-.887-1.537a15.139 15.139 0 0 1 6.218-1.661v1.758a.75.75 0 0 0 1.5 0V12.309a15.139 15.139 0 0 1 6.218 1.661l-.887 1.537a.75.75 0 1 0 1.3.75l.887-1.536a15.37 15.37 0 0 1 4.551 4.552l-1.536.886a.75.75 0 1 0 .75 1.3l1.537-.887a15.16 15.16 0 0 1 1.662 6.218H37.472a.75.75 0 1 0 0 1.5h1.759a15.16 15.16 0 0 1-1.662 6.219l-1.537-.888a.75.75 0 0 0-.75 1.3l1.536.887a15.358 15.358 0 0 1-4.552 4.551l-.886-1.535a.75.75 0 0 0-1.3.75l.887 1.536A15.16 15.16 0 0 1 24.75 42.77V41.011a.75.75 0 1 0-1.5 0V42.77a15.16 15.16 0 0 1-6.218-1.662l.887-1.536a.75.75 0 0 0-1.3-.75l-.886 1.535a15.362 15.362 0 0 1-4.552-4.552l1.535-.886a.75.75 0 0 0-.75-1.3l-1.536.887a15.155 15.155 0 0 1-1.662-6.218h1.759a.75.75 0 0 0 0-1.5H8.769a15.16 15.16 0 0 1 1.662-6.218l1.536.887a.75.75 0 0 0 .75-1.3l-1.535-.886A15.37 15.37 0 0 1 15.733 14.721zM21.173 5.589v.1a.75.75 0 0 0 1.5 0V4.9a.75.75 0 0 0-.75-.75h-.078V1.5h4.582V4.154h-.078a.75.75 0 0 0-.75.75v.815a.75.75 0 0 0 1.5 0V5.59a1.222 1.222 0 0 0 .828-1.156V1.218A1.22 1.22 0 0 0 26.708 0H21.566a1.221 1.221 0 0 0-1.221 1.218V4.434A1.22 1.22 0 0 0 21.173 5.589zM36.518 10.085A.75.75 0 0 0 37.546 9l.709-.862 2.51 2.026-.7.859a.75.75 0 0 0-.861 1.225l.143.115a1.224 1.224 0 0 0 1.7-.177L42.1 10.9a1.216 1.216 0 0 0-.175-1.724L38.98 6.8a1.221 1.221 0 0 0-1.708.175L36.215 8.257a1.214 1.214 0 0 0 .173 1.722z"/><path fill="#232323" d="M24.136 29.938a2.368 2.368 0 0 0 1.4-.459c.009-.006.019-.008.027-.014l8.233-6.624a.749.749 0 0 0-.738-1.284L23.23 25.32l0 0a2.4 2.4 0 0 0 .91 4.615zm-.9-2.4a.9.9 0 0 1 .545-.824l.01 0a.9.9 0 0 1 1.24.828.9.9 0 1 1-1.8 0zm3.182-.69a2.381 2.381 0 0 0-.536-.939l3.25-1.245zM7.228 12.187a1.225 1.225 0 0 0 1.7.173l.14-.113a.75.75 0 0 0-.86-1.225l-.7-.859 2.511-2.026L10.726 9a.75.75 0 0 0 1.028 1.086l.125-.1a1.216 1.216 0 0 0 .18-1.724L11 6.97a1.223 1.223 0 0 0-1.708-.176L6.348 9.172a1.214 1.214 0 0 0-.18 1.724z"/></svg>