<svg xmlns="http://www.w3.org/2000/svg" viewBox="0 0 48 48"><path fill="#BDBDBD" d="M19 3c-1.1 0-2 .9-2 2v2h7V3h-5z"/><path fill="#757575" d="M31 5c0-1.1-.9-2-2-2h-5v4h7V5z"/><path fill="#BDBDBD" d="M5 8c-1.1 0-2 .9-2 2v2c0 1.1.9 2 2 2h19V8H5z"/><path fill="#757575" d="M43 8H24v6h19c1.1 0 2-.9 2-2v-2c0-1.1-.9-2-2-2z"/><path fill="#BDBDBD" d="m6.1 15 2.6 26.4c.2 2 1.9 3.6 4 3.6H24V15H6.1zM19 36.1c0 1.1-.9 1.9-1.9 1.9s-1.9-.9-1.9-1.9V21.9c0-1.1.9-1.9 1.9-1.9.5 0 1 .2 1.4.6.4.3.6.8.6 1.4v14.1z"/><path fill="#757575" d="M24 15v30h11.4c2.1 0 3.8-1.6 4-3.6L41.9 15H24zm9 21.1c0 1.1-.9 1.9-1.9 1.9H31c-1.1 0-1.9-.9-1.9-1.9V21.9c0-1.1.9-1.9 1.9-1.9 1.1 0 1.9.9 1.9 1.9v14.2z"/><path fill="#5D4037" d="M31 9c-.6 0-1-.4-1-1V5c0-.6-.4-1-1-1H19c-.6 0-1 .4-1 1v3c0 .6-.4 1-1 1s-1-.4-1-1V5c0-1.7 1.3-3 3-3h10c1.7 0 3 1.3 3 3v3c0 .6-.5 1-1 1z"/><path fill="#5D4037" d="M43 15H5c-1.7 0-3-1.3-3-3v-2c0-1.7 1.3-3 3-3h38c1.7 0 3 1.3 3 3v2c0 1.7-1.3 3-3 3zM5 9c-.6 0-1 .4-1 1v2c0 .6.4 1 1 1h38c.6 0 1-.4 1-1v-2c0-.6-.4-1-1-1H5z"/><path fill="#5D4037" d="M35.4 46H12.6c-2.6 0-4.7-1.9-5-4.5L5 14.3c0-.3.1-.6.3-.8.2-.2.5-.3.7-.3h36c.3 0 .6.1.7.3.2.2.3.5.3.8l-2.6 27.2c-.3 2.6-2.4 4.5-5 4.5zM7.1 15.2l2.5 26.1c.2 1.5 1.4 2.7 3 2.7h22.7c1.6 0 2.8-1.2 3-2.7l2.5-26.1H7.1z"/><path fill="#5D4037" d="M17.1 39c-1.6 0-2.9-1.3-2.9-2.9V21.9c0-1.6 1.3-2.9 2.9-2.9s2.9 1.3 2.9 2.9V36c0 1.7-1.3 3-2.9 3zm0-18c-.5 0-.9.4-.9.9V36c0 .5.4.9.9.9s.9-.4.9-.9V21.9c0-.5-.4-.9-.9-.9zM31 39c-1.7 0-3-1.3-3-2.9V21.9c0-1.6 1.3-2.9 2.9-2.9 1.7 0 3 1.3 3 2.9v14.2C34 37.7 32.6 39 31 39zm0-18c-.6 0-1 .4-1 .9v14.2c0 .5.4.9.9.9h.1c.5 0 .9-.4.9-.9V21.9c.1-.5-.4-.9-.9-.9z"/></svg>