<svg xmlns="http://www.w3.org/2000/svg" data-name="Layer 1" viewBox="0 0 48 48"><path fill="#55aae1" d="M24 28a12 12 0 1 1 12-12 12 12 0 0 1-12 12Zm0-22a10 10 0 1 0 10 10A10 10 0 0 0 24 6Z"/><path fill="#55aae1" d="M41 44H7.05a1 1 0 0 1-.73-.31 1 1 0 0 1-.27-.75 18 18 0 0 1 35.9 0 1 1 0 0 1-.27.75A1 1 0 0 1 41 44ZM8.15 42h31.7a16 16 0 0 0-31.7 0Z"/><path fill="#55aae1" d="M30.71 7.29a11 11 0 0 1-15.42 15.42A11 11 0 1 0 30.71 7.29zM32 29a16.87 16.87 0 0 1 4.81 9.82 1 1 0 0 1-1 1.15H7.51a16.45 16.45 0 0 0-.46 3H41A17 17 0 0 0 32 29z" opacity=".35"/></svg>